<?xml version="1.0" encoding="iso-8859-1"?>
<!-- Uploaded to: SVG Repo, www.svgrepo.com, Generator: SVG Repo Mixer Tools -->
<svg height="800px" width="800px" version="1.1" id="Layer_1" xmlns="http://www.w3.org/2000/svg" xmlns:xlink="http://www.w3.org/1999/xlink" 
	 viewBox="0 0 512 512" xml:space="preserve">
<path style="fill:#FFDC64;" d="M459.473,503.706H52.527c-19.543,0-35.387-15.843-35.387-35.387V61.374
	c0-19.543,15.843-35.387,35.387-35.387h406.946c19.543,0,35.387,15.843,35.387,35.387V468.32
	C494.86,487.863,479.016,503.706,459.473,503.706z"/>
<path style="fill:#FF5050;" d="M371.006,149.84l35.387-26.54l35.387,26.54V17.14c0-4.886-3.961-8.847-8.847-8.847h-53.08
	c-4.886,0-8.847,3.961-8.847,8.847V149.84z"/>
<path style="fill:#AFB9D2;" d="M256,326.773L256,326.773c-34.201,0-61.927-27.725-61.927-61.927V176.38
	c0-34.201,27.725-61.927,61.927-61.927l0,0c34.201,0,61.927,27.725,61.927,61.927v88.467
	C317.927,299.048,290.201,326.773,256,326.773z"/>
<path style="fill:#7F8499;" d="M256,326.773L256,326.773c-34.201,0-61.927-27.725-61.927-61.927v-44.233h123.853v44.233
	C317.927,299.048,290.201,326.773,256,326.773z"/>
<path style="fill:#C84146;" d="M379.853,8.294c-4.886,0-8.847,3.961-8.847,8.847v132.7l35.387-26.54V8.294H379.853z"/>
<path d="M459.473,17.693h-9.4V17.14c0-9.452-7.689-17.14-17.14-17.14h-53.08c-9.452,0-17.14,7.689-17.14,17.14v0.553H52.527
	c-24.085,0-43.68,19.595-43.68,43.68V468.32c0,24.085,19.595,43.68,43.68,43.68h406.946c24.085,0,43.68-19.595,43.68-43.68V61.374
	C503.153,37.289,483.558,17.693,459.473,17.693z M379.3,17.14c0-0.305,0.248-0.553,0.553-0.553h53.08
	c0.305,0,0.553,0.248,0.553,0.553v116.112l-22.117-16.587c-1.474-1.106-3.226-1.659-4.976-1.659c-1.751,0-3.502,0.553-4.976,1.659
	L379.3,133.253V17.14z M486.566,468.32c0,14.939-12.154,27.093-27.093,27.093H52.527c-14.939,0-27.093-12.154-27.093-27.093V61.374
	c0-14.939,12.154-27.093,27.093-27.093h310.186V149.84c0,3.142,1.775,6.014,4.585,7.418c2.81,1.406,6.173,1.102,8.685-0.783
	l30.41-22.808l30.41,22.808c1.463,1.098,3.215,1.659,4.977,1.659c1.264,0,2.535-0.289,3.708-0.876
	c2.81-1.404,4.585-4.276,4.585-7.418V34.281h9.4c14.939,0,27.093,12.154,27.093,27.093V468.32z"/>
<path d="M353.313,212.32H326.22v-35.94c0-38.72-31.501-70.22-70.22-70.22s-70.22,31.501-70.22,70.22v35.94h-27.093
	c-4.58,0-8.294,3.713-8.294,8.294s3.713,8.294,8.294,8.294h0.553v35.94c0,50.56,38.981,92.18,88.467,96.401v45.698h-35.94
	c-4.58,0-8.294,3.713-8.294,8.294s3.713,8.294,8.294,8.294h88.467c4.58,0,8.294-3.713,8.294-8.294s-3.713-8.294-8.294-8.294h-35.94
	v-45.698c49.486-4.221,88.467-45.841,88.467-96.401v-35.939h0.553c4.58,0,8.294-3.713,8.294-8.294S357.894,212.32,353.313,212.32z
	 M202.367,176.38c0-20.149,11.174-37.731,27.646-46.895v46.895c0,4.58,3.713,8.294,8.294,8.294s8.294-3.713,8.294-8.294v-52.791
	c3.054-0.543,6.192-0.842,9.4-0.842c3.208,0,6.345,0.3,9.4,0.842v52.791c0,4.58,3.713,8.294,8.294,8.294s8.294-3.713,8.294-8.294
	v-46.895c16.471,9.164,27.646,26.746,27.646,46.895v35.94H202.367V176.38z M202.367,228.907h107.266v35.94
	c0,29.573-24.06,53.633-53.633,53.633s-53.633-24.06-53.633-53.633V228.907z M336.173,264.847c0,44.208-35.965,80.173-80.173,80.173
	s-80.173-35.965-80.173-80.173v-35.94h9.952v35.94c0,38.72,31.501,70.22,70.22,70.22s70.22-31.501,70.22-70.22v-35.94h9.952V264.847
	z"/>
</svg>