<?xml version="1.0" encoding="iso-8859-1"?>

<!DOCTYPE svg PUBLIC "-//W3C//DTD SVG 1.1//EN" "http://www.w3.org/Graphics/SVG/1.1/DTD/svg11.dtd">
<!-- Uploaded to: SVG Repo, www.svgrepo.com, Generator: SVG Repo Mixer Tools -->
<svg height="800px" width="800px" version="1.1" id="_x36_" xmlns="http://www.w3.org/2000/svg" xmlns:xlink="http://www.w3.org/1999/xlink" 
	 viewBox="0 0 512 512"  xml:space="preserve">
<g>
	<path style="fill:#0F6D38;" d="M24.22,246.039c0.399,0.418,0.8,0.806,1.199,1.224c-0.428-0.359-0.828-0.776-1.228-1.193
		L24.22,246.039z"/>
	<path style="fill:#0F6D38;" d="M512,259.828c-12.708,12.654-26.302,24.323-40.665,34.918
		c-58.827,43.544-130.591,69.12-207.951,69.12c-55.172,0-107.46-13.012-154.236-36.231c-0.057-0.03-0.114-0.06-0.172-0.09
		c-34.811-17.28-66.594-40.26-94.209-67.717l11.223-11.729l0.114-0.12c-0.228-0.239-0.457-0.448-0.685-0.716
		c0.229,0.208,0.486,0.447,0.714,0.686c0.771,0.806,1.571,1.612,2.37,2.418c13.221,12.892,27.443,24.682,42.464,35.276
		c2.17,1.552,4.397,3.044,6.625,4.536c53.63,35.933,117.369,56.765,185.763,56.765c38.066,0,74.676-6.446,108.887-18.354
		c2.599-0.925,5.254-1.88,7.853-2.835c7.825-2.925,15.507-6.148,23.045-9.67h0.029c7.539-3.522,14.907-7.282,22.16-11.311
		c7.254-4.059,14.364-8.357,21.275-12.893c4.598-3.044,9.139-6.178,13.593-9.431c0.029,0,0.029,0,0.029,0
		c0.314-0.239,0.657-0.478,0.971-0.746c0.029,0,0.029,0,0.057-0.03c4.112-2.984,8.11-6.088,12.079-9.312
		c4.74-3.79,8.624-8.326,13.136-12.385c0.029,0,0.057-0.03,0.086-0.06c2.256-2.029,4.512-4.088,6.711-6.178
		c2.199-2.089,4.369-4.208,6.54-6.357L512,259.828z"/>
	<path style="fill:#BECAC3;" d="M474.961,221.418l24.844,25.965c-4.312,4.298-8.71,8.476-13.25,12.535
		c-0.029,0.03-0.057,0.06-0.086,0.06c-0.086,0.06-0.143,0.149-0.228,0.209c-0.428,0.388-0.857,0.746-1.285,1.104
		c-0.486,0.418-0.942,0.836-1.428,1.254c-2.684,2.388-5.426,4.715-8.167,6.894c-0.086,0.09-0.171,0.149-0.257,0.239
		c-0.857,0.746-1.713,1.432-2.57,2.119c-4.312,3.462-8.681,6.805-13.136,10.087c0,0,0,0-0.029,0
		c-4.455,3.223-8.995,6.387-13.593,9.431c-6.911,4.536-14.021,8.834-21.275,12.893c-7.254,4.029-14.621,7.789-22.16,11.311h-0.029
		c-7.539,3.492-15.221,6.715-23.045,9.67c-2.599,0.955-5.226,1.91-7.853,2.835c-34.211,11.908-70.821,18.354-108.887,18.354
		c-68.08,0-131.504-20.623-184.934-56.197c-2.228-1.492-4.426-2.984-6.625-4.536c-1.885-1.313-3.741-2.656-5.597-4.029
		c-13.279-9.67-25.873-20.294-37.695-31.815c-0.571-0.567-1.114-1.104-1.685-1.701c-0.228-0.209-0.485-0.448-0.714-0.686
		c-0.4-0.388-0.8-0.806-1.199-1.224c0.4,0.388,0.828,0.806,1.228,1.194l0.114-0.119l12.765-13.34l7.653-7.998l12.651-13.221
		c0.257,0.239,0.486,0.477,0.714,0.657c0.057,0.089,0.143,0.149,0.2,0.209c1.342,1.373,2.742,2.716,4.141,3.999
		c1.685,1.612,3.427,3.193,5.14,4.745c1.571,1.432,3.198,2.835,4.826,4.238c0.2,0.179,0.4,0.358,0.628,0.537
		c1.257,1.134,2.57,2.179,3.884,3.253c0.057,0.06,0.086,0.119,0.143,0.119c0.657,0.567,1.314,1.104,1.97,1.612
		c6.625,5.402,13.45,10.505,20.504,15.281c1.342,0.925,2.656,1.791,4.026,2.686c2.085,1.373,4.169,2.716,6.311,4.029
		c0.971,0.627,1.942,1.224,2.913,1.791c7.396,4.477,15.021,8.655,22.817,12.445c1.085,0.537,2.199,1.074,3.284,1.582
		c0.999,0.478,2.028,0.955,3.056,1.432c1.456,0.686,2.941,1.343,4.398,1.97c0.6,0.298,1.257,0.567,1.913,0.836
		c1.142,0.507,2.313,0.985,3.512,1.492c3.655,1.522,7.368,2.984,11.137,4.357c1.771,0.657,3.598,1.313,5.426,1.94
		c0.114,0.06,0.257,0.089,0.371,0.119c1.057,0.388,2.085,0.716,3.141,1.044c1.513,0.537,2.998,1.015,4.512,1.462
		c1.885,0.597,3.798,1.164,5.711,1.701c1.114,0.358,2.256,0.686,3.398,0.955c1.142,0.328,2.285,0.657,3.427,0.955
		c0.2,0.06,0.4,0.119,0.6,0.149c2.028,0.537,4.055,1.044,6.083,1.522c0.942,0.209,1.885,0.448,2.827,0.657
		c1.399,0.298,2.77,0.627,4.141,0.895c1.514,0.328,3.027,0.627,4.541,0.895c8.453,1.671,17.048,2.925,25.73,3.79
		c2.199,0.239,4.398,0.418,6.625,0.597c7.253,0.567,14.593,0.836,21.989,0.836c7.396,0,14.735-0.269,21.989-0.836
		c2.256-0.179,4.483-0.358,6.711-0.597c9.167-0.925,18.191-2.268,27.1-4.059c1.028-0.179,2.085-0.418,3.113-0.627
		c5.911-1.254,11.765-2.686,17.563-4.298c0.999-0.269,2.027-0.567,2.999-0.866c0.314-0.06,0.6-0.149,0.885-0.239
		c1.513-0.448,3.027-0.895,4.512-1.373c8.881-2.746,17.563-5.939,26.072-9.52c1-0.418,1.971-0.836,2.941-1.254
		c1.114-0.477,2.227-0.985,3.341-1.462c0.914-0.418,1.828-0.836,2.713-1.253c0.828-0.358,1.656-0.746,2.456-1.134
		c1.199-0.567,2.427-1.164,3.598-1.761c3.57-1.731,7.082-3.552,10.566-5.432c0.657-0.358,1.314-0.746,1.999-1.104
		c1.656-0.895,3.284-1.82,4.883-2.746c1.399-0.806,2.799-1.612,4.169-2.477c0.742-0.418,1.485-0.865,2.199-1.313
		c1.428-0.836,2.827-1.701,4.227-2.626c2.798-1.761,5.54-3.581,8.253-5.462c1.428-0.925,2.827-1.91,4.226-2.925
		c1.485-1.015,2.941-2.059,4.398-3.163c2.542-1.88,5.055-3.79,7.539-5.73c1.228-0.925,2.456-1.91,3.684-2.925
		c0.314-0.239,0.6-0.507,0.914-0.746c0.2-0.179,0.371-0.328,0.571-0.478c1.656-1.343,3.341-2.716,4.969-4.178
		c0.685-0.567,1.342-1.164,2.028-1.761c4.598-3.969,9.081-8.118,13.45-12.475L474.961,221.418L474.961,221.418z"/>
	<path style="fill:#C9BC9E;" d="M475.09,221.279c-4.391,4.336-10.105,7.414-14.693,11.449
		c-55.563,48.876-123.908,76.622-197.056,76.622c-79.131,0-154.15-31.217-211.692-88.072l7.653-7.998l42.007-43.901l0.799-0.836
		l14.079-14.713L263.37,0.011l204.039,213.24L475.09,221.279z"/>
	<path style="fill:#BD5D2C;" d="M467.409,213.251c-2.996,2.651-9.937,7.31-14.693,11.449
		c-51.62,44.929-117.102,73.369-189.375,73.369c-78.903,0-150.723-32.232-204.039-84.788L248.677,11.46L263.37,0.011
		L467.409,213.251z"/>
	<path style="fill:none;" d="M388.996,214.158l3.953-4.131c-1.318-0.169-2.631-0.359-3.953-0.516V214.158z"/>
	<path style="fill:#399C56;" d="M497.294,271.275c-8.27,8.271-16.938,16.078-25.937,23.489
		c-61.401,50.418-138.747,80.588-222.71,80.588c-73.377,0-141.724-23.025-198.825-62.591c-14.887-10.322-28.98-21.768-42.213-34.273
		c-2.581-2.316-5.095-4.765-7.543-7.212l4.036-4.234l7.278-7.544v-0.066h0.066c0.728,0.795,1.522,1.588,2.382,2.383
		c1.654,1.654,3.374,3.242,5.094,4.764h0.066c1.787,1.853,3.573,3.507,5.426,5.161c25.275,22.694,53.726,41.552,84.559,55.776
		c0.066,0.066,0.132,0.066,0.198,0.132c42.61,19.783,89.785,30.767,139.475,30.767c38.045,0,74.7-6.486,108.907-18.395
		c2.58-0.926,5.227-1.851,7.807-2.778c3.97-1.456,7.807-3.043,11.645-4.631l11.446-5.095c7.543-3.507,14.887-7.277,22.165-11.314
		c7.278-4.037,14.358-8.337,21.305-12.836c4.565-3.045,9.131-6.221,13.564-9.461c4.499-3.308,8.866-6.616,13.167-10.057
		c0.529-0.397,1.059-0.861,1.588-1.391c0.331-0.199,0.662-0.464,0.926-0.727c0.066,0,0.066,0,0.066-0.066
		c1.522-1.192,3.044-2.383,4.499-3.639c3.044-2.58,6.087-5.293,9.064-8.072c0.199-0.132,0.397-0.331,0.596-0.53
		c3.573-3.176,7.08-6.55,10.52-9.991l0.529,0.53L497.294,271.275z"/>
	<path style="fill:#F2F9F3;" d="M486.555,259.917c-0.029,0.03-0.057,0.06-0.086,0.06c-0.514,0.447-0.999,0.895-1.513,1.313
		c-6.425,5.671-12.766,11.251-19.248,16.713c-1.456,1.253-2.969,2.477-4.454,3.671c-0.029,0.03-0.029,0.03-0.057,0.03
		c-0.828,0.746-1.714,1.462-2.542,2.119c-4.312,3.462-8.681,6.805-13.136,10.087c0,0,0,0-0.029,0
		c-4.455,3.223-8.995,6.387-13.593,9.431c-6.911,4.536-14.022,8.834-21.275,12.892c-7.254,4.029-14.621,7.79-22.16,11.311h-0.029
		c-7.539,3.492-15.221,6.715-23.046,9.67c-2.598,0.955-5.226,1.911-7.853,2.835c-34.211,11.909-70.821,18.355-108.887,18.355
		c-49.66,0-96.865-10.983-139.5-30.77c-0.057-0.03-0.114-0.06-0.172-0.09c-35.239-16.295-67.366-38.619-95.18-65.718
		c-0.8-0.806-1.599-1.612-2.37-2.418l12.651-13.221l0.114-0.119l0.029-0.031l12.736-13.311l7.653-7.998
		c0.4,0.388,0.8,0.806,1.228,1.194c0.086,0.089,0.171,0.179,0.257,0.238c1.171,1.164,2.37,2.328,3.57,3.433
		c3.398,3.193,6.882,6.327,10.424,9.371c0.057,0.06,0.114,0.09,0.171,0.149c1.228,1.104,2.513,2.119,3.798,3.193
		c0.086,0.09,0.172,0.149,0.229,0.179c0.657,0.567,1.313,1.105,1.97,1.612c7.882,6.416,16.049,12.416,24.531,17.967
		c2.085,1.373,4.169,2.716,6.311,4.029c0.971,0.627,1.942,1.223,2.913,1.79c7.396,4.477,15.021,8.655,22.817,12.446
		c1.085,0.537,2.199,1.074,3.284,1.581c1,0.508,2.027,0.985,3.056,1.432c1.456,0.686,2.941,1.344,4.398,1.97
		c1.485,0.686,2.998,1.313,4.54,1.94c1.799,0.776,3.627,1.522,5.455,2.238c2.17,0.866,4.369,1.701,6.568,2.507
		c1.77,0.656,3.598,1.313,5.426,1.94c2.541,0.895,5.112,1.731,7.682,2.507c1.856,0.597,3.713,1.164,5.597,1.701
		c2.599,0.776,5.226,1.492,7.882,2.179c2.028,0.537,4.055,1.044,6.083,1.522c2.313,0.537,4.654,1.074,6.968,1.552
		c1.514,0.328,3.027,0.627,4.541,0.895c2.113,0.418,4.226,0.806,6.368,1.164c1.827,0.328,3.684,0.627,5.511,0.896
		c4.598,0.686,9.195,1.283,13.85,1.73c2.199,0.239,4.398,0.418,6.625,0.598c2.428,0.178,4.855,0.358,7.282,0.447
		c1.913,0.119,3.884,0.209,5.826,0.239c2.941,0.089,5.911,0.149,8.881,0.149c2.97,0,5.911-0.06,8.853-0.149
		c0.742,0,1.456-0.03,2.199-0.06h0.4c1.085-0.06,2.17-0.09,3.256-0.179c2.427-0.09,4.854-0.269,7.282-0.447
		c2.256-0.179,4.483-0.359,6.71-0.598c5.169-0.507,10.309-1.164,15.421-1.97c1.028-0.149,2.027-0.329,3.027-0.507
		c3.941-0.657,7.882-1.374,11.765-2.208c2.513-0.538,4.997-1.075,7.453-1.672c1.028-0.239,2.028-0.478,3.027-0.746
		c2.17-0.567,4.341-1.134,6.511-1.731c3.341-0.895,6.654-1.88,9.938-2.925c1.485-0.447,2.941-0.925,4.398-1.432
		c7.025-2.328,13.936-4.924,20.704-7.789c1-0.418,1.97-0.836,2.941-1.254c1.114-0.477,2.228-0.984,3.341-1.462
		c0.914-0.418,1.828-0.836,2.713-1.253c1.514-0.686,2.998-1.373,4.455-2.09c1.857-0.895,3.684-1.82,5.512-2.745
		c2.228-1.134,4.455-2.298,6.654-3.492c0.657-0.359,1.314-0.746,1.999-1.105c1.571-0.835,3.113-1.73,4.655-2.626
		c1.371-0.776,2.741-1.582,4.112-2.447c0.828-0.447,1.657-0.955,2.485-1.462c1.428-0.836,2.827-1.701,4.226-2.626
		c1.77-1.134,3.512-2.238,5.226-3.403c0.999-0.686,2.027-1.343,3.027-2.059c1.428-0.925,2.827-1.91,4.226-2.925
		c1.485-1.015,2.941-2.059,4.398-3.164c2.542-1.88,5.055-3.79,7.539-5.73c1.542-1.164,3.084-2.418,4.598-3.671
		c0.2-0.179,0.371-0.329,0.571-0.478c1.657-1.343,3.342-2.716,4.969-4.178c5.283-4.477,10.424-9.192,16.021-13.669
		c0.029,0,0.057-0.029,0.086-0.06L486.555,259.917z"/>
	<path style="fill:#FDEFD1;" d="M460.374,232.702c-57.563,56.901-132.528,88.13-211.727,88.13
		c-75.692,0-147.679-28.582-204.118-80.919c-2.117-1.985-4.235-3.97-6.352-6.02l-1.191-1.19l7.609-7.941l42.809-44.794
		l13.233-13.827l148.01-154.694l1.919,1.985l5.359,5.625l196.774,205.639l0.463,0.464l0.066,0.132L460.374,232.702z"/>
	<path style="fill:#EB705C;" d="M452.699,224.695c-2.382,2.316-4.764,4.566-7.146,6.881c-0.331,0.199-0.596,0.464-0.86,0.729
		c-2.448,2.249-4.962,4.433-7.477,6.616c-1.654,1.389-3.308,2.778-4.962,4.168c-1.72,1.389-3.441,2.778-5.161,4.168
		c-2.051,1.59-4.168,3.244-6.285,4.765c-3.705,2.778-7.543,5.492-11.38,8.072c-9.925,6.749-20.246,12.769-30.899,18.195
		c-3.242,1.72-6.55,3.308-9.925,4.83c-2.978,1.389-5.955,2.712-8.998,3.969c-2.779,1.192-5.624,2.316-8.469,3.376
		c-1.323,0.594-2.646,1.058-3.97,1.522c-2.713,1.058-5.492,1.984-8.271,2.911c-8.403,2.845-17.004,5.227-25.738,7.211
		c-2.25,0.596-4.565,1.06-6.815,1.522c-14.027,2.912-28.384,4.765-43.007,5.492c-1.191,0.066-2.382,0.133-3.639,0.199
		c0,0,0,0-0.066,0c-0.661,0-1.389,0.066-2.183,0.066c-2.978,0.066-5.823,0.133-8.8,0.133c-2.977,0-5.889-0.066-8.8-0.133
		c-16.673-0.53-33.016-2.449-48.896-5.757c-2.316-0.462-4.631-0.992-6.947-1.522c-5.426-1.257-10.785-2.646-16.144-4.3
		c-1.588-0.397-3.109-0.927-4.631-1.389c-1.191-0.331-2.382-0.729-3.573-1.124c-5.756-1.853-11.446-3.904-17.071-6.221
		c-1.522-0.528-2.977-1.191-4.499-1.785c-6.815-2.846-13.498-5.956-20.114-9.396c-2.051-1.058-4.102-2.118-6.153-3.242
		c-20.511-11.115-39.633-24.679-57.034-40.293c-0.86-0.795-1.787-1.59-2.647-2.383c-2.117-1.985-4.235-3.971-6.286-6.02
		c-0.397-0.397-0.86-0.795-1.257-1.192l42.809-44.794l13.233-13.827l148.01-154.694l1.919,1.985l5.359,5.625L452.699,224.695z"/>
	<g>
		<path style="opacity:0.2;fill:#FFFFFF;" d="M188.386,143.233c-3.99-0.066-8.137,7.958-8.245,15.071
			c-0.107,7.113,2.692,12.927,7.821,13.011c5.13,0.085,8.102-5.634,8.21-12.747C196.279,151.455,192.375,143.299,188.386,143.233z"
			/>
		<path style="fill:#383838;" d="M187.761,143.904c-3.568,0-7.167,7.313-7.167,13.743c0,6.43,2.58,11.643,7.167,11.643
			c4.587,0,7.167-5.213,7.167-11.643C194.928,151.217,191.329,143.904,187.761,143.904z"/>
		<ellipse style="opacity:0.3;fill:#484747;" cx="185.956" cy="153.177" rx="3.822" ry="3.995"/>
	</g>
	<g>
		<path style="opacity:0.2;fill:#FFFFFF;" d="M256.055,86.506c-3.866-0.132-8.013,7.573-8.23,14.466
			c-0.216,6.893,2.405,12.577,7.376,12.747c4.971,0.17,7.943-5.322,8.159-12.215C263.577,94.612,259.922,86.638,256.055,86.506z"/>
		<path style="fill:#383838;" d="M255.44,87.145c-3.458-0.062-7.063,6.965-7.164,13.197c-0.102,6.233,2.317,11.33,6.763,11.409
			c4.446,0.079,7.029-4.929,7.131-11.161C262.271,94.357,258.898,87.207,255.44,87.145z"/>
		<path style="opacity:0.3;fill:#484747;" d="M257.249,96.169c-0.035,2.138-1.722,3.842-3.768,3.806
			c-2.046-0.036-3.677-1.799-3.642-3.938c0.035-2.139,1.722-3.842,3.768-3.806C255.653,92.267,257.283,94.031,257.249,96.169z"/>
	</g>
	<g>
		<path style="opacity:0.2;fill:#FFFFFF;" d="M248.925,217.617c-4.308-0.071-8.785,8.591-8.901,16.271
			c-0.116,7.68,2.906,13.956,8.444,14.048s8.748-6.083,8.863-13.763C257.447,226.493,253.232,217.687,248.925,217.617z"/>
		<path style="fill:#383838;" d="M248.251,218.341c-3.852,0-7.738,7.895-7.738,14.837c0,6.942,2.786,12.57,7.738,12.57
			c4.952,0,7.738-5.628,7.738-12.57C255.988,226.236,252.102,218.341,248.251,218.341z"/>
		<ellipse style="opacity:0.3;fill:#484747;" cx="246.302" cy="228.353" rx="4.127" ry="4.313"/>
	</g>
	<g>
		<path style="opacity:0.2;fill:#FFFFFF;" d="M367.302,210.579c-4.308-0.071-8.785,8.591-8.901,16.271
			c-0.116,7.68,2.906,13.956,8.444,14.048c5.538,0.091,8.747-6.083,8.863-13.763C375.824,219.456,371.61,210.65,367.302,210.579z"/>
		<path style="fill:#383838;" d="M366.628,211.303c-3.852,0-7.738,7.895-7.738,14.837s2.786,12.57,7.738,12.57
			c4.952,0,7.738-5.628,7.738-12.57S370.48,211.303,366.628,211.303z"/>
		<ellipse style="opacity:0.3;fill:#484747;" cx="364.68" cy="221.316" rx="4.127" ry="4.313"/>
	</g>
	<g>
		<path style="opacity:0.2;fill:#FFFFFF;" d="M128.327,194.848c-4.166-0.069-8.497,8.31-8.609,15.737
			c-0.112,7.428,2.811,13.499,8.167,13.587c5.357,0.088,8.461-5.883,8.572-13.311C136.57,203.433,132.493,194.917,128.327,194.848z"
			/>
		<path style="fill:#383838;" d="M127.675,195.548c-3.725,0-7.484,7.636-7.484,14.35s2.694,12.157,7.484,12.157
			c4.789,0,7.484-5.443,7.484-12.157S131.401,195.548,127.675,195.548z"/>
		<ellipse style="opacity:0.3;fill:#484747;" cx="125.791" cy="205.232" rx="3.991" ry="4.171"/>
	</g>
	<g>
		<path style="opacity:0.2;fill:#FFFFFF;" d="M301.976,155.35c-4.011-0.062-8.181,7.536-8.289,14.272
			c-0.108,6.736,2.706,12.241,7.863,12.321c5.157,0.08,8.146-5.336,8.253-12.071C309.911,163.136,305.987,155.413,301.976,155.35z"
			/>
		<path style="fill:#383838;" d="M301.348,155.985c-3.586,0-7.205,6.925-7.205,13.014s2.594,11.025,7.205,11.025
			c4.611,0,7.205-4.936,7.205-11.025S304.935,155.985,301.348,155.985z"/>
		<ellipse style="opacity:0.3;fill:#484747;" cx="299.534" cy="164.767" rx="3.843" ry="3.783"/>
	</g>
	<path style="opacity:0.3;fill:#FFFFFF;" d="M263.335,0.066V0l-9.925,7.675l-4.764,3.772h-0.066L100.637,166.14l-13.233,13.827
		l-50.55,52.799L24.15,246.066h-0.066L11.38,259.431v0.066l-0.066-0.066l-7.212,7.61L0,271.275c2.448,2.515,4.962,4.896,7.543,7.279
		l0.066-0.066l3.904-4.037l7.08-7.41v-0.066l0.331-0.397h0.066l1.323-1.389l11.248-11.777l0.132-0.066l12.836-13.432l7.278-7.608
		l0.397-0.397l5.029-5.293l7.543-7.873l0.066-0.066l29.576-30.898l0.198-0.199l1.522-1.588L255.859,19.056h0.066l4.962-3.904
		l9.66-7.542L263.335,0.066z"/>
</g>
</svg>