<?xml version="1.0" encoding="iso-8859-1"?>
<!-- Uploaded to: SVG Repo, www.svgrepo.com, Generator: SVG Repo Mixer Tools -->
<svg version="1.1" id="Layer_1" xmlns="http://www.w3.org/2000/svg" xmlns:xlink="http://www.w3.org/1999/xlink" 
	 viewBox="0 0 356.725 356.725" xml:space="preserve">
<g>
	<title>reading-hand-hold-book-novel</title>
	<path style="fill:#9CE7F7;" d="M172.79,33.438H44.611v100.313h66.876c3.078,0,5.573,2.495,5.573,5.573
		c0,18.467-14.971,33.438-33.438,33.438H66.569c-1.76,13.825-9.884,26.031-21.957,32.992v61.748H172.79V33.438z M55.757,50.157
		c0-3.078,2.495-5.573,5.573-5.573h55.73c3.078,0,5.573,2.495,5.573,5.573V94.74c0,3.078-2.495,5.573-5.573,5.573H61.33
		c-3.078,0-5.573-2.495-5.573-5.573C55.757,94.74,55.757,50.157,55.757,50.157z M161.644,256.356H55.757V245.21h105.886
		L161.644,256.356L161.644,256.356z M161.644,234.064H55.757v-11.146h105.886L161.644,234.064L161.644,234.064z M161.644,211.772
		h-94.74v-11.146h94.74V211.772z M161.644,189.481h-61.303v-11.146h61.303V189.481z M161.644,167.189h-39.011v-11.146h39.011
		V167.189z M161.644,144.897h-33.438v-11.146h33.438V144.897z M161.644,122.605H55.757v-11.146h105.886L161.644,122.605
		L161.644,122.605z M161.644,100.313h-27.865V89.167h27.865V100.313z M161.644,78.021h-27.865V66.876h27.865V78.021z M161.644,55.73
		h-27.865V44.584h27.865V55.73z"/>
	<rect x="66.903" y="55.73" style="fill:#F78628;" width="44.584" height="33.438"/>
	<polygon style="fill:#F78628;" points="44.611,278.648 44.611,289.794 312.114,289.794 312.114,278.648 178.363,278.648 	"/>
	<rect x="206.227" y="211.772" style="fill:#F78628;" width="44.584" height="33.438"/>
	<path style="fill:#9CE7F7;" d="M183.936,267.502h128.178v-61.748c-12.073-6.961-20.197-19.167-21.957-32.992h-17.053
		c-18.467,0-33.438-14.971-33.438-33.438c0-3.078,2.495-5.573,5.573-5.573h66.876V33.438H183.936V267.502z M273.103,200.627h22.292
		v11.146h-22.292V200.627z M273.103,222.918h27.865v11.146h-27.865V222.918z M273.103,245.21h27.865v11.146h-27.865V245.21z
		 M300.967,100.313h-27.865V89.167h27.865V100.313z M300.967,78.021h-44.584V66.876h44.584L300.967,78.021L300.967,78.021z
		 M261.957,89.167v11.146h-27.865V89.167H261.957z M234.092,44.584h66.876V55.73h-66.876L234.092,44.584L234.092,44.584z
		 M195.081,44.584h27.865V55.73h-27.865V44.584z M195.081,66.876h50.157v11.146h-50.157V66.876z M195.081,89.167h27.865v11.146
		h-27.865V89.167z M195.081,111.459h105.886v11.146H195.081V111.459z M195.081,133.751h33.438v11.146h-33.438V133.751z
		 M195.081,156.043h39.011v11.146h-39.011V156.043z M195.081,178.335h61.303v11.146h-61.303V178.335z M195.081,206.2
		c0-3.078,2.495-5.573,5.573-5.573h55.73c3.078,0,5.573,2.495,5.573,5.573v44.584c0,3.078-2.495,5.573-5.573,5.573h-55.73
		c-3.078,0-5.573-2.495-5.573-5.573L195.081,206.2L195.081,206.2z"/>
	<path style="fill:#414A52;" d="M355.081,140.94l-31.822-31.766V27.865c0-3.078-2.495-5.573-5.573-5.573H39.039
		c-3.078,0-5.573,2.495-5.573,5.573v81.309L1.644,140.996c-1.043,1.052-1.625,2.475-1.616,3.957v211.772h11.146V147.182
		l22.292-22.292v14.434c0,3.078,2.495,5.573,5.573,5.573h66.151c-2.54,9.836-11.409,16.711-21.567,16.719H61.33
		c-3.078,0-5.573,2.495-5.573,5.573c0,18.467-14.971,33.438-33.438,33.438v11.146c3.762-0.011,7.507-0.498,11.146-1.449v85.043
		c0,3.078,2.495,5.573,5.573,5.573h39.011v55.73h11.146v-55.73H267.53v55.73h11.146v-55.73h39.011c3.078,0,5.573-2.495,5.573-5.573
		v-85.043c3.639,0.951,7.384,1.438,11.146,1.449v-11.146c-18.467,0-33.438-14.971-33.438-33.438c0-3.078-2.495-5.573-5.573-5.573
		h-22.292c-10.159-0.008-19.028-6.883-21.567-16.719h66.151c3.078,0,5.573-2.495,5.573-5.573V124.89l22.292,22.292V356.67h11.146
		V144.897C356.706,143.416,356.124,141.992,355.081,140.94z M66.569,172.762h17.053c18.467,0,33.438-14.971,33.438-33.438
		c0-3.078-2.495-5.573-5.573-5.573H44.611V33.438H172.79v234.064H44.611v-61.748C56.685,198.793,64.809,186.587,66.569,172.762z
		 M312.114,289.794H44.611v-11.146h267.502v11.146H312.114z M273.103,172.762h17.053c1.76,13.825,9.884,26.031,21.957,32.992v61.748
		H183.936V33.438h128.178v100.313h-66.876c-3.078,0-5.573,2.495-5.573,5.573C239.665,157.791,254.636,172.762,273.103,172.762z"/>
	<path style="fill:#414A52;" d="M61.33,100.313h55.73c3.078,0,5.573-2.495,5.573-5.573V50.157c0-3.078-2.495-5.573-5.573-5.573
		H61.33c-3.078,0-5.573,2.495-5.573,5.573V94.74C55.757,97.818,58.253,100.313,61.33,100.313z M66.903,55.73h44.584v33.438H66.903
		V55.73z"/>
	<path style="fill:#414A52;" d="M200.654,200.627c-3.078,0-5.573,2.495-5.573,5.573v44.584c0,3.078,2.495,5.573,5.573,5.573h55.73
		c3.078,0,5.573-2.495,5.573-5.573V206.2c0-3.078-2.495-5.573-5.573-5.573H200.654z M250.811,245.21h-44.584v-33.438h44.584V245.21z
		"/>
	<rect x="133.779" y="44.584" style="fill:#414A52;" width="27.865" height="11.146"/>
	<rect x="133.779" y="66.876" style="fill:#414A52;" width="27.865" height="11.146"/>
	<rect x="133.779" y="89.167" style="fill:#414A52;" width="27.865" height="11.146"/>
	<rect x="195.081" y="89.167" style="fill:#414A52;" width="27.865" height="11.146"/>
	<rect x="234.092" y="89.167" style="fill:#414A52;" width="27.865" height="11.146"/>
	<rect x="273.103" y="89.167" style="fill:#414A52;" width="27.865" height="11.146"/>
	<rect x="55.757" y="111.459" style="fill:#414A52;" width="105.886" height="11.146"/>
	<rect x="195.081" y="111.459" style="fill:#414A52;" width="105.886" height="11.146"/>
	<rect x="128.206" y="133.751" style="fill:#414A52;" width="33.438" height="11.146"/>
	<rect x="122.633" y="156.043" style="fill:#414A52;" width="39.011" height="11.146"/>
	<rect x="100.341" y="178.335" style="fill:#414A52;" width="61.303" height="11.146"/>
	<rect x="195.081" y="133.751" style="fill:#414A52;" width="33.438" height="11.146"/>
	<rect x="195.081" y="156.043" style="fill:#414A52;" width="39.011" height="11.146"/>
	<rect x="195.081" y="178.335" style="fill:#414A52;" width="61.303" height="11.146"/>
	<rect x="66.903" y="200.627" style="fill:#414A52;" width="94.74" height="11.146"/>
	<rect x="55.757" y="222.918" style="fill:#414A52;" width="105.886" height="11.146"/>
	<rect x="55.757" y="245.21" style="fill:#414A52;" width="105.886" height="11.146"/>
	<rect x="273.103" y="200.627" style="fill:#414A52;" width="22.292" height="11.146"/>
	<rect x="273.103" y="222.918" style="fill:#414A52;" width="27.865" height="11.146"/>
	<rect x="273.103" y="245.21" style="fill:#414A52;" width="27.865" height="11.146"/>
	<rect x="195.081" y="66.876" style="fill:#414A52;" width="50.157" height="11.146"/>
	<rect x="256.384" y="66.876" style="fill:#414A52;" width="44.584" height="11.146"/>
	<rect x="195.081" y="44.584" style="fill:#414A52;" width="27.865" height="11.146"/>
	<rect x="234.092" y="44.584" style="fill:#414A52;" width="66.876" height="11.146"/>
	<rect x="267.53" style="fill:#414A52;" width="11.146" height="11.146"/>
	<rect x="289.822" style="fill:#414A52;" width="11.146" height="11.146"/>
	<rect x="312.114" style="fill:#414A52;" width="11.146" height="11.146"/>
	<rect x="195.081" style="fill:#414A52;" width="61.303" height="11.146"/>
</g>
</svg>