<?xml version="1.0" encoding="utf-8"?>
<!-- Uploaded to: SVG Repo, www.svgrepo.com, Generator: SVG Repo Mixer Tools -->
<svg width="800px" height="800px" viewBox="0 -42.56 443.617 443.617" xmlns="http://www.w3.org/2000/svg"><defs><style>.a{fill:#d3d1d0;}.b{fill:#ffda71;}.c{fill:#ffffff;}.d{fill:#b5886a;}.e{fill:#211715;}</style></defs><path class="a" d="M108.686,98.127c9.747,0,19.492.157,29.238.16a1.6,1.6,0,0,0,0-3.2c-9.746,0-19.491-.158-29.238-.16a1.6,1.6,0,0,0,0,3.2Z"/><path class="a" d="M119,189.627c-3.524,0-7.048-.03-10.572-.03a1.6,1.6,0,0,0,0,3.2c3.524,0,7.048.029,10.572.03a1.6,1.6,0,1,0,0-3.2Z"/><path class="a" d="M87.514,132.9c-.454-8.232-1.1-16.45-1.771-24.667-.433-5.314-1-10.663-1.015-16l-1.6,1.6,4.841-.127a15.083,15.083,0,0,0,4.713-.432c2.608-.932,5.6-.8,8.319-.668,2.647.133,5.277.452,7.905.783l-1.543-2.026c-.6,3.421-1.137,6.878-1.881,10.271-1.275,5.811-4.133,11.2-6.113,16.782a88.288,88.288,0,0,0-3.664,13.836c-.364,2.014,2.719,2.877,3.086.851a109.636,109.636,0,0,1,6.781-21.822,61.215,61.215,0,0,0,2.761-7.814c.434-1.7.694-3.434,1.007-5.154.37-2.033.749-4.064,1.108-6.1a1.635,1.635,0,0,0-1.542-2.025c-2.628-.331-5.258-.65-7.905-.783a25.93,25.93,0,0,0-8.8.661,6.364,6.364,0,0,0-.836.3c-.91.43.023-.045.168.043-.118-.071-.513.013-.658.017l-2.907.077-4.841.127a1.627,1.627,0,0,0-1.6,1.6c.012,5.337.582,10.686,1.015,16,.669,8.217,1.317,16.435,1.771,24.667.113,2.048,3.314,2.061,3.2,0Z"/><path class="a" d="M96.149,144.656c1.086,5.054,2.744,9.973,3.908,15.011.669,2.9,1.21,5.814,1.925,8.7.761,3.066,1.517,6.133,2.132,9.233a81.648,81.648,0,0,1,1.608,13.448l.792-1.382c-2.006,1.512-4.52,1.827-6.968,1.87a65.912,65.912,0,0,1-8.373-.578c-2.574-.284-5.168.3-7.737-.321a5.9,5.9,0,0,1-1.064-.329c.159.073-.3-.146-.265-.15-.191.024-.053-.195.106.292.18.55.184.8.173.1-.043-2.729.2-5.482.389-8.2.355-5.133.83-10.258,1.394-15.372q1.254-11.372,3.177-22.656c.347-2.014-2.737-2.879-3.086-.851q-2.8,16.3-4.208,32.8c-.306,3.512-.571,7.028-.747,10.549-.072,1.443-.436,3.326-.032,4.754.346,1.226,1.984,1.79,3.076,2.085a20.883,20.883,0,0,0,6.272.5c4.9-.209,9.715,1.088,14.642.239,1.637-.282,4.523-.972,5.44-2.542.6-1.02.135-2.98.049-4.107-.116-1.532-.284-3.058-.487-4.58a131.7,131.7,0,0,0-2.869-14.331c-1.156-4.661-2.032-9.383-3.237-14.034-.951-3.669-2.127-7.288-2.924-10.995-.432-2.013-3.518-1.161-3.086.85Z"/><path class="a" d="M99.017,132.312c-4.936.277-9.883.026-14.819.3a1.646,1.646,0,0,0-1.542,1.175,19,19,0,0,0-.1,9.217,1.646,1.646,0,0,0,1.543,1.175,61.348,61.348,0,0,0,14.919-.2,1.644,1.644,0,0,0,1.6-1.6c.024-2.822.019-5.645,0-8.468a1.6,1.6,0,0,0-3.2,0c.019,2.823.024,5.646,0,8.468l1.6-1.6a61.348,61.348,0,0,1-14.919.2l1.542,1.174a15.479,15.479,0,0,1,.1-7.516L84.2,135.815c4.936-.277,9.883-.026,14.819-.3a1.635,1.635,0,0,0,1.6-1.6A1.616,1.616,0,0,0,99.017,132.312Z"/><path class="a" d="M332.571,126.275c7.28-.919,14.521-2.16,21.767-3.311,10.693-1.7,21.393-3.348,32.12-4.812q10.323-1.409,20.678-2.558c2.025-.223,2.048-3.426,0-3.2-21.47,2.366-42.782,5.8-64.115,9.144-3.477.545-6.976,1.1-10.45,1.537a1.655,1.655,0,0,0-1.6,1.6,1.607,1.607,0,0,0,1.6,1.6Z"/><path class="a" d="M339.915,132.038c14.2-1.781,28.433-3.362,42.658-4.955q8.315-.931,16.629-1.845c2.025-.222,2.047-3.425,0-3.2q-25.4,2.791-50.784,5.767-4.254.505-8.5,1.033a1.654,1.654,0,0,0-1.6,1.6,1.608,1.608,0,0,0,1.6,1.6Z"/><path class="a" d="M331.012,126.688a8.579,8.579,0,0,0-1.086-1.044c.062.1-.032-.343-.04-.309a1.531,1.531,0,0,0,.025.328c.014.368.028.736.035,1.105.023,1.2.019,2.4.015,3.607-.015,3.848-.072,7.7-.133,11.545-.141,9-.328,17.988-.5,26.982-.052,2.689-.13,5.38-.132,8.07a1.6,1.6,0,0,0,3.2,0c0-6.689.238-13.384.367-20.071.17-8.841.367-17.684.4-26.526,0-1.342.013-2.684-.024-4.025-.03-1.109-.006-2.3-1.275-2.748-1.947-.681-2.785,2.409-.85,3.086Z"/><path class="a" d="M364.6,214.9c-.332,10.455.039,20.956.043,31.416,0,2.565,0,5.13-.043,7.695-.036,2.06,3.164,2.06,3.2,0,.195-11.108-.038-22.225-.043-33.334,0-1.925-.018-3.853.043-5.777.065-2.06-3.135-2.058-3.2,0Z"/><path class="a" d="M367.013,213.519c-2.943-1.439-5.774-3.1-8.726-4.518a1.6,1.6,0,0,0-1.615,2.763c2.952,1.421,5.783,3.079,8.726,4.518a1.6,1.6,0,1,0,1.615-2.763Z"/><path class="a" d="M304.208,187.832c11.284,4.878,22.417,10.13,33.56,15.32,1.855.864,3.482-1.894,1.615-2.763-11.143-5.19-22.276-10.442-33.56-15.32a1.655,1.655,0,0,0-2.189.574,1.61,1.61,0,0,0,.574,2.189Z"/><path class="a" d="M405.536,113.994c0,6.851-.091,13.7-.17,20.553q-.181,15.857-.408,31.712-.243,17.778-.5,35.557-.221,15.811-.427,31.623c-.085,6.791-.182,13.583-.208,20.375q0,.69,0,1.38a1.6,1.6,0,0,0,3.2,0c0-6.151.1-12.3.17-18.454q.188-15.314.408-30.629.248-17.746.5-35.493.225-16.29.428-32.579c.089-7.449.184-14.9.207-22.349q0-.847,0-1.7a1.6,1.6,0,0,0-3.2,0Z"/><path class="a" d="M405.424,256.942c11.716,0,23.432.146,35.147.148a1.6,1.6,0,0,0,0-3.2c-11.715,0-23.431-.146-35.147-.148a1.6,1.6,0,0,0,0,3.2Z"/><path class="a" d="M366.2,255.609h30.3a1.6,1.6,0,0,0,0-3.2H366.2a1.6,1.6,0,0,0,0,3.2Z"/><path class="a" d="M366.2,216.5h39.7a1.6,1.6,0,0,0,0-3.2H366.2a1.6,1.6,0,0,0,0,3.2Z"/><path class="a" d="M305.312,188.2h32.593a1.6,1.6,0,0,0,0-3.2H305.312a1.6,1.6,0,0,0,0,3.2Z"/><path class="a" d="M298.645,166.868h24.817a1.6,1.6,0,0,0,0-3.2H298.645a1.6,1.6,0,0,0,0,3.2Z"/><path class="a" d="M303.418,187.231c-.012,7.643-.438,15.283-.447,22.926a1.6,1.6,0,0,0,3.2,0c.009-7.643.435-15.283.447-22.926a1.6,1.6,0,0,0-3.2,0Z"/><path class="a" d="M406.906,114.942c11.7,0,23.407-.219,35.111-.222a1.6,1.6,0,0,0,0-3.2c-11.7,0-23.407.22-35.111.222a1.6,1.6,0,0,0,0,3.2Z"/><path class="a" d="M440.417,113.564c0,5.608-.086,11.217-.144,16.825q-.164,15.882-.345,31.764-.209,18.683-.417,37.366-.187,16.818-.361,33.634c-.07,6.855-.151,13.71-.176,20.565,0,.393,0,.787,0,1.18a1.6,1.6,0,0,0,3.2,0c0-6.1.084-12.2.144-18.292q.161-16.26.345-32.52.207-18.7.418-37.411.183-16.483.361-32.966c.067-6.4.148-12.791.175-19.186,0-.32,0-.639,0-.959a1.6,1.6,0,0,0-3.2,0Z"/><path class="a" d="M337.72,154.72c16.13,1.908,32.325,3.051,48.518,4.261q6.78.506,13.557,1.072c2.051.174,2.04-3.027,0-3.2-15.836-1.344-31.7-2.27-47.525-3.78q-7.284-.694-14.55-1.553c-2.041-.242-2.023,2.96,0,3.2Z"/><path class="a" d="M331.652,185.37c8.361,2.757,16.592,5.934,24.827,9.042,10.817,4.082,21.611,8.227,32.413,12.35q8.065,3.078,16.143,6.123c1.93.724,2.764-2.368.851-3.086-20.471-7.678-40.813-15.7-61.333-23.243-4-1.47-8-2.937-12.05-4.271-1.961-.647-2.8,2.442-.851,3.085Z"/><path class="a" d="M303.764,211.538c7.4,5.639,15.1,10.912,22.7,16.283q14.709,10.4,29.437,20.775c3.176,2.248,6.369,4.477,9.494,6.794,1.656,1.228,3.253-1.548,1.616-2.763-7.086-5.255-14.376-10.247-21.586-15.33-9.927-7-19.865-13.984-29.75-21.042-3.45-2.464-6.921-4.91-10.294-7.48-1.638-1.247-3.234,1.531-1.615,2.763Z"/><path class="a" d="M355.653,152.972c-.02-.679,0-1.358.018-2.036.011-.335.024-.669.046-1a3.14,3.14,0,0,0,.034-.453c-.025-.316-.056.186-.131.335l-.574.574c-.168.1-.977.166-.591.2.155.014.319,0,.475,0,.475.01.951.031,1.426.052,1.531.068,3.062.154,4.592.242q5.012.286,10.018.631c.579.04,1.157.08,1.736.126.175.014.351.035.527.045.378.021-.27-.058-.194-.028l-.706-.412c-.651-.672-.212-.605-.222-.2.018.1.018.095,0-.023.01.094.019.189.026.283.037.475.053.951.061,1.427.016.857,0,1.713,0,2.57a1.6,1.6,0,0,0,3.2,0c0-1.393.057-2.8-.078-4.187-.127-1.308-.507-2.454-1.965-2.615-1.488-.164-2.993-.227-4.486-.325-4.583-.3-9.176-.656-13.768-.779-.86-.023-1.767-.032-2.26.84a5.126,5.126,0,0,0-.348,2.231c-.038.832-.06,1.669-.036,2.5.059,2.055,3.259,2.063,3.2,0Z"/><path class="a" d="M354.186,149.286a.84.84,0,0,1,.052-.277c.172-.186,19.1,1.022,19.222,1.111.366.263.349,4.514.337,6.449-6.56-.58-13.226-1.192-19.749-1.832C354.032,153.6,354.086,150.275,354.186,149.286Z"/><path class="a" d="M355.653,189.416c-.02-.681,0-1.365.018-2.046.012-.352.026-.705.05-1.057a1.715,1.715,0,0,0,.034-.421l-.027.176c.043-.19.006-.126-.108.193l-.574.574c-.23.116-.9.3-1.1.172a.7.7,0,0,0,.173.036c.2.059.414.1.619.158.635.17,1.266.353,1.9.537,1.83.532,3.653,1.084,5.476,1.639,3.225.981,6.458,1.95,9.663,3a2.589,2.589,0,0,0,.361.12c.011,0,.022.011.033.012-2.449-.312-.894-1.423-.931-.7,0,.042.053.291.012.024.023.151.03.307.041.46.094,1.285.054,2.579.051,3.867a1.6,1.6,0,0,0,3.2,0c0-1.382.056-2.774-.074-4.152-.111-1.175-.345-2.183-1.564-2.623-1.455-.525-2.959-.94-4.436-1.4-4.34-1.347-8.679-2.779-13.079-3.921-.934-.242-1.975-.4-2.551.619a5.362,5.362,0,0,0-.354,2.353c-.033.792-.054,1.589-.031,2.382.059,2.055,3.259,2.063,3.2,0Z"/><path class="a" d="M354.059,191.8c.03-2.82.09-6.25.18-6.34.17-.19,18.25,5.43,18.37,5.52.29.2.34,4.73.34,7.99C366.459,196.487,359.989,194.037,354.059,191.8Z"/><path class="a" d="M323.357,219.342c-.02-.685-.005-1.371.018-2.056.012-.339.025-.678.048-1.017a2.237,2.237,0,0,0,.039-.481c.051.18-.019.172-.139.4l-.574.574,0,0-.807.218c-.166,0-.907-.329-.522-.092.192.119.4.22.594.332.622.357,1.236.728,1.85,1.1,1.779,1.074,3.547,2.166,5.313,3.26q4.881,3.024,9.739,6.085a3.354,3.354,0,0,0,.431.272c.026.012.048.039.074.048l-.618-.765a1.1,1.1,0,0,1,.045.161,1.821,1.821,0,0,1,.04.195c-.016-.141-.018-.149,0-.024a33.882,33.882,0,0,1,.082,4.24,1.6,1.6,0,0,0,3.2,0,36.567,36.567,0,0,0-.112-4.491,2.8,2.8,0,0,0-1.294-2.255c-1.538-1-3.113-1.957-4.671-2.931-4.174-2.61-8.319-5.306-12.6-7.737-.954-.542-2.186-1.051-2.932.2a4.993,4.993,0,0,0-.369,2.287c-.036.826-.059,1.656-.034,2.483.06,2.055,3.26,2.063,3.2,0Z"/><path class="a" d="M321.775,222.137c.03-3.29.09-6.68.17-6.76.17-.18,18.17,11.14,18.29,11.22.25.18.32,4.47.34,8.29C334.155,230.507,327.585,226.087,321.775,222.137Z"/><path class="a" d="M13.48,99.885c10.989,2.416,21.924,5.1,32.841,7.818q4.084,1.017,8.159,2.071c2,.519,2.845-2.566.851-3.086-11.093-2.89-22.249-5.561-33.413-8.161-2.526-.588-5.054-1.171-7.587-1.728-2.007-.441-2.864,2.643-.851,3.086Z"/><path class="a" d="M53.306,108.4q.645,8.1,1.288,16.2,1.03,12.977,2.058,25.951,1.146,14.466,2.285,28.933,1.005,12.765,2,25.532c.405,5.228.819,10.455,1.193,15.684q.033.458.065.915c.14,2.043,3.341,2.059,3.2,0-.319-4.638-.691-9.272-1.05-13.907q-.957-12.382-1.934-24.765-1.136-14.433-2.278-28.864-1.052-13.287-2.106-26.573l-1.419-17.847-.1-1.257c-.163-2.039-3.364-2.056-3.2,0Z"/><path class="a" d="M11.972,98.231c.526,6.611,1.01,13.225,1.5,19.838q1.289,17.249,2.56,34.5,1.45,19.63,2.892,39.263,1.27,17.283,2.531,34.568.727,9.974,1.443,19.948c.023.332.047.664.069,1,.141,2.043,3.342,2.059,3.2,0-.4-5.849-.838-11.7-1.264-17.542Q23.7,213.141,22.47,196.483q-1.438-19.6-2.885-39.195-1.314-17.807-2.64-35.614-.823-11.05-1.667-22.1-.053-.672-.106-1.344c-.162-2.039-3.363-2.057-3.2,0Z"/><path class="a" d="M4.861,99.069c.522,6.563,1,13.13,1.484,19.7q1.26,17,2.5,34,1.42,19.4,2.831,38.8,1.242,17.085,2.478,34.171.713,9.867,1.415,19.735.034.489.068.978c.14,2.044,3.342,2.059,3.2,0-.4-5.8-.826-11.6-1.244-17.4q-1.184-16.411-2.378-32.822-1.408-19.368-2.824-38.735-1.287-17.608-2.587-35.217Q9,111.334,8.165,100.391q-.051-.662-.1-1.322c-.162-2.039-3.363-2.056-3.2,0Z"/><path class="a" d="M25.823,250.057c11.136-6.945,21.794-14.636,32.674-21.969,1.927-1.3,3.854-2.609,5.845-3.809,1.762-1.061.155-3.83-1.615-2.763-4.214,2.539-8.236,5.421-12.292,8.2-5.776,3.957-11.539,7.932-17.362,11.819-2.93,1.957-5.875,3.894-8.865,5.759-1.743,1.087-.139,3.857,1.615,2.763Z"/><path class="a" d="M9.638,171.342C7.191,190.585,4.494,209.8,1.984,229.03q-1.011,7.746-1.976,15.5a1.61,1.61,0,0,0,1.6,1.6,1.637,1.637,0,0,0,1.6-1.6c2.5-20.371,5.328-40.7,8.037-61.048.539-4.044,1.078-8.089,1.593-12.137a1.61,1.61,0,0,0-1.6-1.6,1.638,1.638,0,0,0-1.6,1.6Z"/><path class="a" d="M323.251,178.819q-7.615-2.512-15.215-5.068c-2.009-.68-4.018-1.363-6.018-2.069-.686-.242-1.372-.486-2.054-.742-.23-.086-.458-.175-.687-.263-.462-.175.214.113-.219-.094-1.848-.886-3.473,1.872-1.615,2.763a84.149,84.149,0,0,0,9.412,3.379q7.76,2.63,15.545,5.18c1.96.646,2.8-2.443.851-3.086Z"/><path class="a" d="M294.8,197.39c1.157.756,2.3,1.53,3.465,2.278a1.6,1.6,0,1,0,1.615-2.763c-1.163-.748-2.308-1.522-3.465-2.278a1.6,1.6,0,0,0-1.615,2.763Z"/><path class="a" d="M91.01,121.787c-.012,3.627-.4,7.267-.593,10.888a1.6,1.6,0,0,0,3.2,0c.2-3.621.581-7.261.593-10.888a1.6,1.6,0,1,0-3.2,0Z"/><path class="a" d="M27.965,122.061l4.439-5.337a1.72,1.72,0,0,0,.469-1.132,1.6,1.6,0,0,0-2.732-1.131L25.7,119.8a1.714,1.714,0,0,0-.468,1.131,1.6,1.6,0,0,0,2.731,1.131Z"/><path class="a" d="M29.018,133.24a171.276,171.276,0,0,1,10.94-13.878,1.637,1.637,0,0,0,0-2.262,1.615,1.615,0,0,0-2.263,0,179.122,179.122,0,0,0-11.44,14.525,1.613,1.613,0,0,0,.574,2.189,1.633,1.633,0,0,0,2.189-.574Z"/><path class="a" d="M363.923,324.033q-.465.288-.934.573l1.939.25c-8-8.09-15.694-16.485-23.7-24.575v2.262a173.125,173.125,0,0,1,16.756-13.87,1.624,1.624,0,0,0-.382-2.924,66.187,66.187,0,0,1-11.556-4.688l.792,1.381a25.52,25.52,0,0,1,.309-5.7c.1-.662.257-1.311.37-1.97.216-1.253.158.985-1.208.541a2.636,2.636,0,0,0,.556.014c3.866.172,7.717.636,11.586.807,5.483.242,10.972.478,16.459.644,2.773.085,5.547.141,8.32.138,2.233,0,4.509-.215,6.732-.019a14.925,14.925,0,0,1,8.975,4.029c3.508,3.136,7.132,7.1,8.3,11.783a6.786,6.786,0,0,1-.674,5.337,27.48,27.48,0,0,1-3.722,4.744,39.332,39.332,0,0,0-3.955,4.839,51.2,51.2,0,0,0-3.489,6.589c-.967,2.116-1.843,4.278-2.935,6.335a27.264,27.264,0,0,1-1.848,3.021c-.363.51-.8.968-1.161,1.478-.431.612-.11.21.189.043.169-.095.11-.041.182.007a16.272,16.272,0,0,0-1.892-.659c-.867-.406-1.711-.863-2.548-1.329-1.449-.808-2.858-1.695-4.333-2.456l.574,2.189a47.271,47.271,0,0,0,2.773-6.156,21.856,21.856,0,0,1,3.216-5.435c.979-1.28-.917-3.049-2.189-2.189-7.237,4.892-14.085,10.345-21.5,14.969-1.744,1.087-.139,3.857,1.616,2.763,7.418-4.624,14.266-10.077,21.5-14.969l-2.189-2.189a23.928,23.928,0,0,0-3.369,5.761,48.7,48.7,0,0,1-2.62,5.83,1.621,1.621,0,0,0,.574,2.189c1.651.851,3.223,1.853,4.853,2.743,1.572.859,3.426,2.01,5.265,2.1,2.119.107,3.437-2.437,4.433-3.977a49.6,49.6,0,0,0,3.479-6.911,58.522,58.522,0,0,1,4.183-8.134,53.4,53.4,0,0,1,4.769-5.667,18.358,18.358,0,0,0,3.916-6.176,11.494,11.494,0,0,0-.77-7.8,26.419,26.419,0,0,0-4.752-7.263,34.46,34.46,0,0,0-6.451-5.91c-3.965-2.677-8.29-2.791-12.9-2.729-12.34.164-24.769-.5-37.068-1.467-1.658-.13-3.33-.478-3.914,1.52a27.513,27.513,0,0,0-.884,7.206c-.016,1.372.037,2.447,1.354,3.146.875.464,1.77.889,2.675,1.292a92.981,92.981,0,0,0,9.131,3.439l-.382-2.924a179.519,179.519,0,0,0-17.4,14.371,1.622,1.622,0,0,0,0,2.262c8,8.091,15.694,16.486,23.7,24.576a1.628,1.628,0,0,0,1.939.25q.468-.285.935-.573C367.287,325.715,365.682,322.946,363.923,324.033Z"/><path class="a" d="M385.025,282.324q.043,3.421.086,6.843a3.5,3.5,0,0,0,1.224,3.083,5.631,5.631,0,0,0,2.636.723c1.535.188,3.084.256,4.626.35.794.048,1.589.1,2.382.164.33.028.661.059.99.095.084.01.66.092.206.022.15.023.3.046.45.072a1.648,1.648,0,0,0,1.969-1.118,1.614,1.614,0,0,0-1.118-1.968c-2.818-.488-5.7-.46-8.547-.717-.32-.029-.639-.064-.958-.1-.427-.047.338.064-.062-.008-.141-.026-.283-.045-.423-.072-.091-.016-.181-.035-.271-.056-.2-.05-.236-.064-.121-.041a.491.491,0,0,1,.275.326l-.041-.152c.02.3-.013-.318-.014-.375,0-.228-.006-.456-.008-.684l-.081-6.387a1.6,1.6,0,0,0-3.2,0Z"/><path class="a" d="M83.328,283.347c-5.257,12.318-11.449,24.3-17.722,36.122-1.519,2.865-3.059,5.72-4.662,8.54l1.807-.736a207.267,207.267,0,0,0-25.493-8.437l1.117,1.968c.082-.211-.135.264.069-.15.084-.17.168-.339.256-.506.214-.408.447-.807.683-1.2.573-.957,1.184-1.892,1.8-2.819,1.628-2.428,3.34-4.8,5.079-7.149a130.732,130.732,0,0,1,8.858-11.231c1.4-1.51-.859-3.778-2.262-2.263A138.194,138.194,0,0,0,43.5,307.362c-1.788,2.416-3.55,4.855-5.217,7.356a27.886,27.886,0,0,0-3,5.236,1.613,1.613,0,0,0,1.117,1.968A207.338,207.338,0,0,1,61.9,330.359a1.6,1.6,0,0,0,1.806-.735c6.62-11.65,12.637-23.7,18.364-35.805,1.386-2.931,2.748-5.875,4.021-8.857a1.658,1.658,0,0,0-.574-2.189,1.611,1.611,0,0,0-2.19.574Z"/><path class="a" d="M85.135,282.612c-8.963-3.315-17.969-6.561-27.08-9.451-1.412-.447-2.828-.889-4.257-1.278a10.33,10.33,0,0,0-2.56-.523,4.627,4.627,0,0,0-2.592,1.368C39.477,279.687,30.62,287.186,22.167,295c-2.383,2.2-4.736,4.443-6.952,6.813a27.289,27.289,0,0,0-4.209,5.319,1.615,1.615,0,0,0,.574,2.189c7.63,3.433,15.482,6.345,23.112,9.778,1.862.838,3.492-1.919,1.615-2.763-7.63-3.433-15.482-6.345-23.111-9.778l.574,2.189A20.033,20.033,0,0,1,17,304.585c1.825-1.992,3.762-3.882,5.726-5.736,4.691-4.431,9.575-8.66,14.515-12.811,4-3.359,8.034-6.675,12.154-9.882.338-.263.838-.65,1.444-1.1a5.22,5.22,0,0,0,.906-.641c.19-.233-.937.308-.443.149.144-.046-.391-.084.007.007.2.046.4.084.606.131,1.168.275,2.32.627,3.468.977,9.746,2.975,19.347,6.485,28.9,10.019,1.934.715,2.769-2.377.85-3.086Z"/><path class="a" d="M324.889,357.03c2.709-1.142,5.64-2.445,7.023-5.195,2.032-4.041,1.067-8.632-.343-12.717-1.38-4-3.438-7.719-4.89-11.688-.975-2.669-1.636-5.642-2.984-8.155a1.61,1.61,0,0,0-1.807-.735c-3.5,1.354-7.036,2.606-10.519,4a1.634,1.634,0,0,0-1.117,1.968c.979,3.182,3.066,5.916,4.158,9.071.669,1.935,1.465,3.828,2.031,5.8.427,1.49,1.362,4.088.285,5.478-.866,1.118-2.584,1.035-3.83,1.313a5.106,5.106,0,0,0-3.589,3.115c-1.328,3.188.452,6.492,3.359,8.014,3.767,1.973,8.427,1.243,12.223-.267,1.89-.753,1.066-3.849-.851-3.086-2.924,1.164-6.787,2.136-9.757.59a3.671,3.671,0,0,1-2.236-2.851,2.306,2.306,0,0,1,2.1-2.5c3-.5,5.8-1.71,6.175-5.117.4-3.611-1.417-7.387-2.6-10.7a39.916,39.916,0,0,0-2.174-5.193,27.529,27.529,0,0,1-2.209-4.514l-1.117,1.969c3.482-1.395,7.02-2.646,10.518-4l-1.807-.736a23.076,23.076,0,0,1,1.031,2.728c.509,1.46,1,2.925,1.529,4.378,1.223,3.383,2.894,6.575,4.224,9.914,1.351,3.393,2.967,7.641,1.833,11.3a5.117,5.117,0,0,1-2.407,3.133c-.608.364-1.237.694-1.871,1.01-.305.152-.612.3-.92.444-.075.035-.793.353-.312.15a1.656,1.656,0,0,0-1.117,1.968A1.608,1.608,0,0,0,324.889,357.03Z"/><path class="a" d="M326.542,354.634c1.422,3.133,5.452,3.764,8.479,3.152a14.192,14.192,0,0,0,8.228-5.388c1.535-2.028,3.125-4.282,3.312-6.885.282-3.9-1.893-7.2-4.385-9.985-2.922-3.263-6.52-5.825-9.889-8.594-1.579-1.3-3.855.954-2.263,2.263,3.163,2.6,6.518,5.012,9.34,8,2.176,2.3,5.144,5.984,3.755,9.415a18.457,18.457,0,0,1-2.2,3.581,13.115,13.115,0,0,1-2.716,2.729c-2.154,1.552-7.377,3.454-8.9.1-.85-1.872-3.608-.248-2.763,1.615Z"/><path class="a" d="M316.881,332.643c.629-.348,1.273-.666,1.928-.962q.253-.115.51-.226l.134-.057.137-.056q.564-.232,1.136-.446a33.211,33.211,0,0,1,4.3-1.311,1.612,1.612,0,0,0,1.117-1.968,1.636,1.636,0,0,0-1.968-1.118,34.247,34.247,0,0,0-8.909,3.381,1.616,1.616,0,0,0-.574,2.189,1.633,1.633,0,0,0,2.189.574Z"/><path class="a" d="M45.259,279.4c9.268,3.171,18.378,6.871,27.476,10.492,2.105.837,4.208,1.679,6.3,2.545a1.61,1.61,0,0,0,1.968-1.117,1.638,1.638,0,0,0-1.118-1.968c-9.164-3.793-18.431-7.367-27.72-10.84-2.012-.752-4.025-1.5-6.057-2.2-1.953-.668-2.792,2.422-.851,3.085Z"/><path class="a" d="M362.763,211.919c.434-2.884-.061-6.313-2.169-8.5a19.145,19.145,0,0,0-7.639-4.433c-5.141-1.744-11.972-2.4-15.135,3.019a17.1,17.1,0,0,0-1.738,7.083,20.732,20.732,0,0,0,1.328,8.641,13.606,13.606,0,0,0,5.447,6.774,10.2,10.2,0,0,0,9.491.241c2.634-1.221,4.12-3.8,5.125-6.413a18.591,18.591,0,0,0,1.1-9.264,1.613,1.613,0,0,0-1.969-1.118,1.641,1.641,0,0,0-1.117,1.969,14.771,14.771,0,0,1-.673,6.306,10.906,10.906,0,0,1-2.675,4.883,6.914,6.914,0,0,1-6.246,1.254c-2.35-.685-4.055-2.75-5.112-4.865-1.851-3.7-1.845-8.317-.815-12.239a5.69,5.69,0,0,1,3.223-3.962c1.939-.786,4.381-.329,6.353.079a19.434,19.434,0,0,1,7.634,3.3,6.66,6.66,0,0,1,2.5,6.394,1.655,1.655,0,0,0,1.118,1.968,1.61,1.61,0,0,0,1.968-1.117Z"/><path class="b" d="M162.362,2.917q-5.815,27.215-11.343,54.491-5.865,28.771-11.586,57.57Q133.658,143.936,127.9,172.9q-5.541,27.779-11.182,55.538-5.153,25.239-10.537,50.429-.621,2.88-1.247,5.76c-.436,2.008,2.648,2.866,3.086.851q5.383-24.766,10.436-49.6,5.643-27.51,11.118-55.053,5.77-28.881,11.5-57.771,5.754-28.889,11.594-57.761,5.59-27.533,11.39-55.021.689-3.249,1.383-6.5c.429-2.008-2.655-2.866-3.086-.85Z"/><path class="b" d="M242.362,1.99c1.718,6.819,3.369,13.655,5.008,20.493q3.327,13.878,6.574,27.776,3.848,16.4,7.645,32.82,4.178,18.033,8.323,36.072,4.266,18.551,8.511,37.105,4.108,17.949,8.2,35.9,3.757,16.464,7.51,32.929,3.159,13.857,6.32,27.714,2.329,10.206,4.669,20.41c.843,3.667,1.675,7.338,2.554,11,.083.349.167.7.255,1.045.509,1.994,3.6,1.149,3.086-.851-.715-2.8-1.331-5.627-1.981-8.443q-2.113-9.164-4.2-18.335-2.971-13.006-5.935-26.015-3.628-15.921-7.26-31.841-4.048-17.744-8.1-35.484-4.218-18.442-8.451-36.882-4.194-18.261-8.412-36.518Q262.756,73.921,258.8,56.97q-3.415-14.617-6.883-29.221-2.664-11.19-5.409-22.363-.526-2.124-1.06-4.247c-.5-2-3.59-1.15-3.086.851Z"/><path class="b" d="M252.052,252.96c2.086,7.043,5.586,18.308,5.632,19.493.051.955-.221,1.773-2,2.556a20.77,20.77,0,0,0,2.667,6.333c3.889,5.778,8.334,12.521,9,18,.512,4.209,0,6.445-1.889,8.889-2.358,3.051-8.8,4.641-15,2.667-4.469-1.422-9.944-7.925-13.074-11.482a28.806,28.806,0,0,1-4.593-8.074c-1.243-3.858-.951-7.691-.963-9.555-5.537.222-12.629-.3-13.629-2.963-.522-.913-5.323-21.973-7.048-29.829q-1.4-.018-2.791-.022c.59,7.616,1.415,15.8,1.839,23.925.076,1.452.481,3.407-.334,4.37a6.731,6.731,0,0,1-3.3,1.963c.445,4.222.63,10.654-3.778,15.111s-11.722,8.889-17.944,11.556c-2.539,1.088-8.306,2.266-11.056,2a7.986,7.986,0,0,1-6.777-4.778c-1.557-3.341-.189-9.434,2.222-12.222,2.833-3.278,5.926-6.815,8.666-9.445-2.333,0-5.3-1.037-5.555-2.444-.123-8.788-.383-21.255-.382-27.051-34.522,5.493-67.916,18.394-67.916,37.31,0,27.183,62.222,41.481,104,41.481,45.922,0,104-14.3,104-41.481C312.052,271.418,284.605,258.926,252.052,252.96Z"/><path class="b" d="M126.353,56.231c-3.316-9.145-13.44-17.146-23.447-16.314l.425,3.143c9.777-1.934,17.786-11.181,16.028-21.407l-3.086.851c3.194,9.9,12.778,16.525,23.076,16.763l-.425-3.142c-4.719,1.091-8.661,4.437-11.491,8.247C124.574,48.22,122.8,53,123.5,57.815l3.085-.851c-.072-.246-.151-.491-.236-.733-.654-1.941-3.745-1.109-3.086.851.086.242.164.486.237.733.621,2.019,3.377,1.139,3.085-.851-.571-3.9,1.323-7.936,3.607-10.977,2.362-3.143,5.687-5.876,9.579-6.777,1.794-.415,1.345-3.1-.426-3.143-8.837-.2-17.24-5.885-19.99-14.414a1.6,1.6,0,0,0-3.086.851c1.472,8.559-5.893,15.908-13.793,17.47-1.75.346-1.379,3.293.426,3.143,8.538-.71,17.5,6.078,20.361,13.965C123.964,59,127.058,58.174,126.353,56.231Z"/><path class="b" d="M310.619,104.469c-2.351-6.395-9.3-11.934-16.323-11.389l.426,3.143c6.923-1.4,12.375-7.886,11.178-15.084l-3.086.851a17.331,17.331,0,0,0,16.072,11.693l-.426-3.143c-6.378,1.516-11.681,8.733-10.767,15.275l3.085-.851q-.074-.249-.159-.5c-.654-1.941-3.746-1.108-3.086.851q.087.246.16.5c.623,2.025,3.363,1.135,3.085-.851-.674-4.828,4.036-10.27,8.533-11.339,1.793-.426,1.346-3.095-.425-3.142A14.041,14.041,0,0,1,305.9,81.139a1.6,1.6,0,0,0-3.086.851c.919,5.521-3.9,10.127-8.943,11.147-1.749.354-1.381,3.283.425,3.143,5.548-.431,11.35,3.906,13.237,9.04C308.238,107.237,311.332,106.409,310.619,104.469Z"/><path class="b" d="M94.742,243.192c-2.114-5.751-8.348-10.737-14.668-10.247l.425,3.143c6.254-1.265,11.132-7.131,10.052-13.616l-3.085.851a15.573,15.573,0,0,0,14.445,10.516l-.425-3.143c-5.77,1.371-10.512,7.881-9.688,13.785l3.086-.85c-.043-.148-.091-.294-.142-.439-.654-1.942-3.745-1.109-3.085.85.051.145.1.292.141.439.624,2.026,3.363,1.136,3.086-.85-.3-2.13.82-4.4,2.068-6.046a9.879,9.879,0,0,1,5.385-3.8c1.792-.426,1.346-3.095-.426-3.142a12.285,12.285,0,0,1-11.36-8.167,1.6,1.6,0,0,0-3.085.851c.8,4.808-3.447,8.795-7.817,9.679-1.75.354-1.381,3.283.425,3.143,4.845-.376,9.933,3.409,11.583,7.9C92.361,245.959,95.455,245.131,94.742,243.192Z"/><path class="c" d="M214.943,84.306c-.32-.15-.53-.24-.55-.25-1.87-.68-1.8-1.89-2.03-3.25a26.257,26.257,0,0,1-.388-3.38c4.794-2.124,8.639-8.562,9.313-10.393.1-.311.311-.9.5-1.593l.388-.06a4.858,4.858,0,0,0,2.265-1.021,7.333,7.333,0,0,0,1.9-2.493,11.56,11.56,0,0,0,1.179-6.127,3.86,3.86,0,0,0-.4-1.552,2.724,2.724,0,0,0-1.962-1.3,2.856,2.856,0,0,0-1.954.42c-3.047-.407-6.539-5.167-7.739-7.22a38.655,38.655,0,0,1-2.618-7.032c-3.218,4.049-8.543,6.644-14.1,7.93-1.33.323-.274-2.814.023-4.658-3.634,3.126-11.222,7.962-14.973,11.04a2.844,2.844,0,0,0-2.041-.48,2.724,2.724,0,0,0-1.962,1.3,3.86,3.86,0,0,0-.4,1.552,11.56,11.56,0,0,0,1.179,6.127,7.333,7.333,0,0,0,1.9,2.493,4.858,4.858,0,0,0,2.265,1.021l.739.114a19.639,19.639,0,0,0,3.746,7.313,17.079,17.079,0,0,0,5.425,4.449,25.981,25.981,0,0,1-.375,3.06c-.23,1.35-.16,2.56-2.03,3.24-.02.01-.27.12-.66.31,0,0-1.279,13.027,10.721,13.027S214.943,84.306,214.943,84.306Z"/><path class="d" d="M216.45,78.858a37.848,37.848,0,0,0,12.62-2.28.665.665,0,0,0,.246-1.09,23.069,23.069,0,0,1-5.252-10.864,4.581,4.581,0,0,1-2.273.8c-.189.718-.406,1.326-.511,1.645-.722,1.959-5.077,9.2-10.34,10.772A14.18,14.18,0,0,0,216.45,78.858Z"/><path class="d" d="M180.563,61.866a7.333,7.333,0,0,0,1.9,2.493,4.858,4.858,0,0,0,2.265,1.021l.72.112a19.68,19.68,0,0,0,3.757,7.347,15.605,15.605,0,0,0,7.552,5.278l-2.719.427c-2.75.434-9.71.132-12.111-.869-1.97-.82-4.064-1.842-5.729-2.7a.317.317,0,0,1-.047-.532A12,12,0,0,0,180.3,63.593Z"/><path class="d" d="M183.858,53.308c3.775-3.08,11.294-7.878,14.906-10.985-.3,1.844-1.353,4.981-.023,4.658,5.556-1.286,10.881-3.881,14.09-7.937a39.177,39.177,0,0,0,2.627,7.039c1.2,2.051,4.685,6.8,7.727,7.214a2.93,2.93,0,0,1,1.966-.414,2.265,2.265,0,0,1,.358.081c1.631-3.8.809-10.233.159-13.439-2.01-9.93-11.934-17.812-22.341-17.236C192.92,21.713,183,29.6,180.986,39.525a28.454,28.454,0,0,0,.016,9.4s.363,1.924.748,3.96a2.891,2.891,0,0,1,2.312.676"/><path class="e" d="M182.545,48.5a20.452,20.452,0,0,1,2.373-14.61,21.26,21.26,0,0,1,11.824-9.19,25.771,25.771,0,0,1,7.66-.838,19.167,19.167,0,0,1,7.607,1.6A21.323,21.323,0,0,1,222.88,36.039a24.271,24.271,0,0,1,1.819,7.77c.274,2.879.377,5.96-.716,8.691-.765,1.911,2.329,2.742,3.086.85a19.94,19.94,0,0,0,.892-8.824,31.2,31.2,0,0,0-1.5-8.109,24.155,24.155,0,0,0-11.408-13.032A26.191,26.191,0,0,0,197.6,21.169a24.492,24.492,0,0,0-14.479,9.647,23.585,23.585,0,0,0-3.662,18.532c.434,2.012,3.52,1.161,3.086-.851Z"/><path class="e" d="M211.375,39.772a28.676,28.676,0,0,0,3.816,8.818c1.78,2.484,4.188,5.486,7.322,6.211,2,.463,2.86-2.621.851-3.086-.15-.035-.3-.074-.443-.12-.452-.141.232.128-.212-.08a6.811,6.811,0,0,1-.819-.464,9.441,9.441,0,0,1-1.491-1.228A21.1,21.1,0,0,1,217.76,46.7a25.81,25.81,0,0,1-3.3-7.779c-.579-1.972-3.668-1.133-3.086.851Z"/><path class="e" d="M211.76,37.855a20.569,20.569,0,0,1-8.2,5.922c-.811.34-1.642.637-2.48.9q-.586.186-1.177.352c-.263.074-.527.144-.792.212q-.878.038.09.59c.734.739.446.494.5-.086a9.159,9.159,0,0,1,.168-.9c.143-.7.311-1.395.433-2.1a1.615,1.615,0,0,0-2.674-1.557c-4.7,4-10.108,7.1-14.906,10.985-1.6,1.3.676,3.548,2.263,2.262,4.8-3.885,10.2-6.977,14.906-10.984L197.222,41.9c-.281,1.61-1.1,3.583-.61,5.215.746,2.474,3.859,1.129,5.514.59,4.5-1.465,8.886-3.848,11.9-7.586,1.28-1.589-.971-3.867-2.263-2.262Z"/><path class="e" d="M223.971,54.69a1.346,1.346,0,0,1,.967-.229,1.242,1.242,0,0,1,.746.456,2.977,2.977,0,0,1,.271,1.495,9.322,9.322,0,0,1-.127,1.924c-.417,2.284-1.54,5.046-4.08,5.5a1.614,1.614,0,0,0-1.118,1.968,1.637,1.637,0,0,0,1.969,1.117c4.2-.752,6.2-5.472,6.52-9.277.168-2.016-.049-4.241-1.785-5.535a4.513,4.513,0,0,0-5.626.317,1.612,1.612,0,0,0,0,2.262,1.635,1.635,0,0,0,2.263,0Z"/><path class="e" d="M220.543,63.229a10.568,10.568,0,0,1-.623,2.858c-.052.157-.377.955-.125.417-.1.2-.186.41-.288.611a24.8,24.8,0,0,1-2.135,3.433C215.584,73,213,75.7,209.989,76.405c-2,.47-1.156,3.556.85,3.085,3.892-.913,6.9-4.085,9.191-7.184,1.969-2.667,3.576-5.69,3.713-9.077.084-2.059-3.116-2.055-3.2,0Z"/><path class="e" d="M185.193,52.428a4.516,4.516,0,0,0-5.626-.317c-1.738,1.288-1.952,3.523-1.785,5.535.316,3.805,2.324,8.525,6.521,9.277a1.644,1.644,0,0,0,1.968-1.117,1.613,1.613,0,0,0-1.118-1.968c-2.54-.456-3.663-3.218-4.08-5.5a6.183,6.183,0,0,1,.1-3.342,1.247,1.247,0,0,1,1.76-.3,1.644,1.644,0,0,0,2.263,0,1.612,1.612,0,0,0,0-2.262Z"/><path class="e" d="M183.3,63.146a22.773,22.773,0,0,0,4.868,10.9,16.346,16.346,0,0,0,10.684,6.04,1.61,1.61,0,0,0,1.6-1.6,1.637,1.637,0,0,0-1.6-1.6c-3.5-.377-6.441-2.667-8.6-5.315a19.933,19.933,0,0,1-3.868-9.272,1.614,1.614,0,0,0-1.968-1.117,1.636,1.636,0,0,0-1.118,1.968Z"/><path class="e" d="M178.76,64.019a10.471,10.471,0,0,1-3.333,8.941,2.318,2.318,0,0,0-.99,1.665,2.051,2.051,0,0,0,1.206,1.863c1.141.634,2.35,1.175,3.535,1.718a21.276,21.276,0,0,0,3.107,1.274,27.858,27.858,0,0,0,5.809.782,31.252,31.252,0,0,0,6.37-.175,1.611,1.611,0,0,0,1.117-1.968A1.641,1.641,0,0,0,193.613,77a4.933,4.933,0,0,0-.535.053c-.286.023-.573.039-.859.052-.7.031-1.392.036-2.087.027a43.444,43.444,0,0,1-4.533-.282,13.057,13.057,0,0,1-3.184-.693c-.9-.352-1.784-.784-2.66-1.2q-.717-.342-1.429-.695a4.512,4.512,0,0,1-1.141-.57l.469,1.132-.017-.2-.218.808a10.009,10.009,0,0,1,1.031-.973,15.379,15.379,0,0,0,1.095-1.372,13.781,13.781,0,0,0,1.626-3.108,13.572,13.572,0,0,0,.675-6.812,1.61,1.61,0,0,0-1.968-1.117,1.643,1.643,0,0,0-1.118,1.968Z"/><path class="e" d="M222.183,62.331a23.185,23.185,0,0,0,1.853,7.629,25.011,25.011,0,0,0,1.972,3.843c.313.488.649.959,1,1.419.229.3.46.594.705.879q.153.177.312.35,1.088-1.683.172-1.257a17.27,17.27,0,0,0-1.9.6q-.882.255-1.775.47a36.553,36.553,0,0,1-4.122.768,20.567,20.567,0,0,1-7.587-.226c-2-.517-2.846,2.569-.85,3.086,4.585,1.188,9.671.443,14.181-.736,1.855-.484,6.07-1.275,4.743-4.125a24.366,24.366,0,0,0-1.985-2.633,22.846,22.846,0,0,1-1.683-3.069,19.863,19.863,0,0,1-1.843-7c-.116-2.048-3.317-2.061-3.2,0Z"/><path class="c" d="M186.932,278.782c-4.541,4.823-8.1,8.468-12.422,13.488a15.461,15.461,0,0,0-2.84,4.153,5.362,5.362,0,0,0,.211,4.858c1.7,2.609,5.6,2.334,8.547,1.316a54.665,54.665,0,0,0,11.894-6.28c3.3-2.162,6.647-4.547,8.565-8s.59-6.226.371-10.506"/><path class="c" d="M249.463,273.715c1.3,2.75,3.141,8.1,5.554,11.73a69.435,69.435,0,0,1,6.265,11.726c.888,2.131,1.656,4.626.58,6.669-1.043,1.98-3.513,2.8-5.751,2.731-3.229-.1-6.685-3.021-9.119-5.147-3.314-2.9-8.553-9.595-9.132-11.731a25.778,25.778,0,0,1-.552-4.327c-.362-3.806-.529-5.828-.821-8.162"/><path class="c" d="M196.77,144.01H173.439c-.085,14.62-.861,35.973-.861,35.973.386,8.106,2.517,35.368,2.623,37.71.579,12.739,1.086,32.136,1.955,59.255,3.818.965,23.506,2.413,28.517-2.509-.386-4.054-5.156-78.967-6.958-91.359,8.111,29.2,16.441,63.661,23.51,93.159,8.762,2.543,25.411-.787,29.506-4.695-1.445-6.561-14.476-54.43-16.274-60.5-1.687-8.021-4.493-21.367-5.7-26.863,0,0-6.656-27.2-9.829-40.171Z"/><path class="c" d="M202.62,130.082c1.2-4.673,4.193-16.435,4.718-19,2.231-10.919,5.586-16.875,7.817-27.794,4.9,2.07,10.738,3.905,15.3,6.637a7.932,7.932,0,0,1,3.426,4.413,154.211,154.211,0,0,1,3.861,19.4c.561,3.86,3.184,15.151,2.171,20.942-2.283-.294-5.267-.587-7.992-.767-.134,7.3-.354,19.162-.354,19.162.346,3.9.694,8.821.963,12.728.413,5.988,1.55,12.2,1.894,17.737a.558.558,0,0,1-.62.586,49.12,49.12,0,0,0-5.972-.517c-6.4.721-12.938.837-16.238,1.1a.717.717,0,0,1-.766-.593c-1.722-9.634-6.016-28.015-8.263-40.751-.763-4.322-1.508-7.288-.391-11.533C202.245,131.54,202.4,130.927,202.62,130.082Z"/><path class="c" d="M191.6,84.732c-.015-.387-.027-.774-.038-1.16-3.841,1.5-7.305,2.4-11.146,3.909a14.6,14.6,0,0,0-5.556,3.9,27.412,27.412,0,0,0-2.744,6.334c-1.613,7.3-3.138,11.565-4.632,18.143-1.134,4.988-4.054,11.581-3.571,18.24,3,0,9.227-.282,13.04-.611l-.012.177c-.6,9.454-.909,18.716-.809,24.776,4.922-.273,9.438-.5,11.838-.576.058-.442.1-.749.1-.749,1.846-14.072,4.511-28.428,4.681-30.03a142.76,142.76,0,0,0,.317-19C192.853,100.427,191.882,92.417,191.6,84.732Z"/><path class="b" d="M190.17,142.755c1.306-8.221,2.467-14.634,2.578-15.674a142.76,142.76,0,0,0,.317-19c-.146-5.243-.647-10.655-1.038-16.014a30.614,30.614,0,0,0,9.505,1.355,52.853,52.853,0,0,0,11.276-1.069c-1.867,6.049-3.934,11.213-5.47,18.728-.62,3.034-4.678,18.884-5.168,20.748-1.117,4.245-.372,7.211.391,11.533.038.216.076.433.116.652h-12.7Q190.071,143.376,190.17,142.755Z"/><path class="e" d="M185.8,277.65c-3.973,4.217-7.994,8.389-11.8,12.763-1.715,1.975-3.657,4.067-4.221,6.708a6.265,6.265,0,0,0,2.111,6.462c3.939,2.987,9.639.536,13.477-1.338a69.479,69.479,0,0,0,7.381-4.3,42.464,42.464,0,0,0,6.255-4.7c2.03-1.936,3.916-4.409,4.36-7.246.427-2.729-.345-5.462-.51-8.185-.123-2.046-3.324-2.06-3.2,0,.126,2.089.605,4.155.648,6.247a8.1,8.1,0,0,1-2.168,5.451c-2.9,3.468-7.155,5.916-11.016,8.16a41.267,41.267,0,0,1-6.7,3.231,10.1,10.1,0,0,1-5.1.742,2.948,2.948,0,0,1-2.409-3.866c.536-2.279,2.477-4.11,3.97-5.812,3.614-4.121,7.42-8.067,11.178-12.056,1.411-1.5-.847-3.766-2.263-2.263Z"/><path class="e" d="M248.082,274.522c.958,2.053,1.754,4.179,2.674,6.25a50.32,50.32,0,0,0,3.631,6.635,69.685,69.685,0,0,1,4.4,8.05c.953,2.055,2.814,5.277,1.69,7.575-.989,2.02-3.989,2.246-5.864,1.635-2.362-.769-4.387-2.541-6.229-4.144a43.723,43.723,0,0,1-7.941-9.311,12.854,12.854,0,0,1-1-1.816,20.559,20.559,0,0,1-.58-4.517c-.238-2.56-.46-5.123-.775-7.675a1.651,1.651,0,0,0-1.6-1.6,1.607,1.607,0,0,0-1.6,1.6c.335,2.713.578,5.439.821,8.162.216,2.416.32,4.689,1.575,6.813a44.356,44.356,0,0,0,8.843,10.607c3.987,3.473,9.735,7.621,15.037,4.07,2.652-1.777,3.233-4.793,2.482-7.754a40.959,40.959,0,0,0-3.941-8.954c-1.685-3.129-3.81-6-5.357-9.2-1.274-2.635-2.264-5.392-3.5-8.043-.871-1.864-3.63-.241-2.763,1.615Z"/><path class="e" d="M212.382,90.806a46.769,46.769,0,0,1-10.257,1.009,34.391,34.391,0,0,1-4.95-.239c-.863-.118-1.719-.3-2.567-.495a12.327,12.327,0,0,0-2.587-.618,1.6,1.6,0,0,0,0,3.2c.071,0,.82.277,1.05.335.448.113.9.221,1.348.318.876.188,1.757.332,2.645.446a38.024,38.024,0,0,0,5.366.25,50.375,50.375,0,0,0,10.8-1.12c2-.469,1.156-3.555-.851-3.086Z"/><path class="c" d="M231.744,151.424c.455-.934,1.037-1.986,1.8-3.361s.456-2.806.723-3.691c.826-2.736,1.589-6.612,2.172-9.41l.139-.666c-2.89-.29-6.1-.523-8.462-.563-.092.371-.146.578-.146.578-.677,2.625-.9,6.214-1.582,8.839a.947.947,0,0,1-.249.507c-.172.146-.424.1-.644.15a17.639,17.639,0,0,0-9.018,4.736c5.041,1.554,9.66,2.874,14.618,4.382C231.274,152.437,231.489,151.949,231.744,151.424Z"/><path class="e" d="M191.134,82.03c-4.39,1.7-9.294,2.639-13.4,4.983a12.85,12.85,0,0,0-4.363,3.7,22.256,22.256,0,0,0-2,4.22,39.231,39.231,0,0,0-1.491,5.337c-.5,2.065-1.053,4.118-1.615,6.167-1.116,4.064-2.009,8.2-3.2,12.236-1.481,5.029-3.076,10.1-2.752,15.416.125,2.046,3.326,2.06,3.2,0-.273-4.477.905-8.764,2.175-13.013,1.123-3.759,1.968-7.583,3-11.367,1.071-3.937,1.981-7.918,3.043-11.853.735-2.727,1.942-5.6,4.311-7.257a24.573,24.573,0,0,1,6.4-2.878c2.524-.853,5.065-1.649,7.55-2.611,1.9-.735,1.075-3.83-.85-3.085Z"/><path class="e" d="M214.73,84.826c4.361,1.83,8.9,3.278,13.1,5.467,1.686.877,3.292,1.806,4.169,3.579.913,1.847,1.2,4.236,1.664,6.241.993,4.325,1.739,8.7,2.389,13.085.463,3.124,1.1,6.218,1.6,9.336.6,3.765,1.331,7.906.707,11.713-.33,2.015,2.753,2.882,3.086.851,1.168-7.13-1.039-14.522-2.132-21.533-.728-4.668-1.441-9.325-2.486-13.936a41.706,41.706,0,0,0-1.745-6.658,9.7,9.7,0,0,0-3.83-4.433c-4.812-3.021-10.472-4.612-15.679-6.8a1.611,1.611,0,0,0-1.968,1.118,1.64,1.64,0,0,0,1.118,1.968Z"/><path class="e" d="M223.4,125.891c0,2.647.031,5.3.034,7.942a1.615,1.615,0,0,0,1.6,1.6,81.775,81.775,0,0,1,14.876.84,1.609,1.609,0,0,0,1.6-1.6,1.64,1.64,0,0,0-1.6-1.6,81.775,81.775,0,0,0-14.876-.84l1.6,1.6c0-2.647-.033-5.295-.034-7.942a1.6,1.6,0,0,0-3.2,0Z"/><path class="e" d="M213.612,82.858c-1.259,6.075-3.31,11.881-5.175,17.783-1.386,4.383-2.327,8.848-3.407,13.307-.945,3.9-1.931,7.783-2.919,11.668-.87,3.417-2.116,6.983-2.11,10.533a51.47,51.47,0,0,0,1.261,9c.49,2.693,1.016,5.379,1.558,8.063,1.177,5.83,2.43,11.645,3.663,17.464.546,2.577,1.089,5.156,1.613,7.738q.345,1.7.676,3.4a18.288,18.288,0,0,0,.6,2.979c.519,1.366,1.727,1.543,3.01,1.459,1.3-.086,2.606-.143,3.91-.207,3.367-.166,6.735-.35,10.091-.684a24.266,24.266,0,0,1,4.865.053c.979.1,2.338.526,3.291.2,1.865-.643,1.445-2.75,1.3-4.289-.184-2.007-.435-4.008-.687-6.008-.933-7.4-1.342-14.817-2-22.239-.179-2.036-3.381-2.055-3.2,0,.555,6.3.82,12.634,1.58,18.917.394,3.258.86,6.509,1.144,9.779a4,4,0,0,0,.088,1.11l.016.221q1.4-.594.623-.624a3.94,3.94,0,0,0-1.091-.143c-1.191-.149-2.387-.245-3.586-.3a38.828,38.828,0,0,0-4.738.336c-1.672.135-3.347.24-5.022.332-1.393.077-2.786.142-4.179.211-.608.031-1.217.062-1.825.1l-.587.037c-.465.03-1.11-.167-.408.348.614.449.378.229.3-.224q-.074-.4-.148-.8-.132-.707-.269-1.411-.328-1.7-.675-3.4c-.5-2.458-1.016-4.912-1.535-7.366-1.149-5.43-2.318-10.856-3.428-16.3-.546-2.672-1.079-5.347-1.58-8.028a73.161,73.161,0,0,1-1.393-8.509c-.227-3.4.869-6.654,1.7-9.912.957-3.753,1.909-7.508,2.832-11.269,1.111-4.525,2.02-9.088,3.389-13.548,1.933-6.3,4.191-12.456,5.531-18.924.416-2.009-2.668-2.869-3.086-.85Z"/><path class="e" d="M191.559,145.61h10.423a1.6,1.6,0,0,0,0-3.2H191.559a1.6,1.6,0,1,0,0,3.2Z"/><path class="e" d="M170.978,179.983c.529,10.968,1.49,21.921,2.289,32.872.791,10.839.976,21.725,1.312,32.585q.487,15.753.977,31.508a1.635,1.635,0,0,0,1.174,1.543c4.266,1.047,8.988,1.07,13.35,1.024a57.89,57.89,0,0,0,8.533-.664,18.262,18.262,0,0,0,6.784-2.194c.854-.534,1.86-1.2,1.868-2.305,0-.228-.037-.465-.055-.694-.062-.834-.118-1.668-.175-2.5q-.31-4.554-.6-9.109-.933-14.253-1.884-28.5-1.064-15.753-2.234-31.5c-.547-7.178-1.018-14.388-1.911-21.534-.07-.559-.143-1.119-.225-1.676a1.612,1.612,0,0,0-1.968-1.118,1.639,1.639,0,0,0-1.118,1.968c.025.173.049.345.073.518-.075-.543,0,.02.019.154.055.445.109.891.159,1.337.121,1.061.229,2.123.333,3.186.276,2.826.519,5.655.752,8.485.624,7.563,1.176,15.131,1.713,22.7,1.1,15.514,2.113,31.035,3.129,46.555.258,3.937.435,7.89.8,11.819l.469-1.132c-1.4,1.326-3.756,1.891-5.715,2.271a47.536,47.536,0,0,1-8.156.729c-4.3.078-9.074.084-13.09-.9l1.175,1.543c-.535-16.706-.981-33.415-1.587-50.118-.352-9.673-1.1-19.3-1.8-28.955-.432-5.96-.9-11.923-1.189-17.892-.1-2.05-3.3-2.062-3.2,0Z"/><path class="e" d="M228.218,184.605c1.777,8.115,3.461,16.25,5.171,24.378.842,4.006,2.064,7.926,3.151,11.872q5.192,18.825,10.208,37.7c1.182,4.457,2.444,8.912,3.443,13.415l.411-1.556a13.991,13.991,0,0,1-4.736,2.447,47.627,47.627,0,0,1-7.564,1.908c-5.054.879-10.651,1.336-15.652-.07l1.117,1.118c-5.7-23.8-11.445-47.587-17.625-71.264q-2.583-9.9-5.292-19.76a1.6,1.6,0,0,0-3.086.851c6.509,23.627,12.389,47.424,18.156,71.24q2.394,9.888,4.761,19.783a1.605,1.605,0,0,0,1.118,1.118c4.989,1.4,10.417,1.08,15.489.363,4.623-.654,9.657-1.692,13.723-4.1a5.876,5.876,0,0,0,2.1-1.691,2.514,2.514,0,0,0,0-1.938c-.227-.963-.47-1.922-.713-2.881-.785-3.089-1.6-6.17-2.414-9.25-4-15.082-8.048-30.155-12.278-45.173-1.116-3.966-1.873-8.011-2.722-12.042-1.216-5.773-2.421-11.548-3.683-17.311-.44-2.011-3.526-1.16-3.086.85Z"/><path class="e" d="M226.423,133.886c-.423,1.681-.64,3.405-.893,5.117-.128.865-.261,1.731-.433,2.589a4.122,4.122,0,0,0-.256,1.132q1.395-.664.606-.512c-.127.016-.254.034-.382.052-.163.03-.327.075-.489.114a19.921,19.921,0,0,0-8.96,4.771c-1.516,1.4.751,3.659,2.263,2.263a16.061,16.061,0,0,1,4.559-3,17.319,17.319,0,0,1,1.972-.68q.506-.144,1.017-.267c.161-.039.326-.084.489-.113a3.493,3.493,0,0,0,.5-.072c1.161-.33,1.477-1.476,1.7-2.517.19-.886.33-1.78.464-2.675.268-1.789.486-3.593.928-5.35.5-2-2.582-2.849-3.086-.85Z"/><path class="e" d="M214.73,149.678c5.453,1.7,10.944,3.267,16.408,4.932,1.974.6,2.818-2.486.85-3.085-5.463-1.665-10.955-3.234-16.408-4.932-1.97-.614-2.813,2.474-.85,3.085Z"/><path class="e" d="M234.892,134.537c-.657,3.159-1.385,6.282-2.172,9.409a14.416,14.416,0,0,0-.232,2.083,5.817,5.817,0,0,1-.892,2.246,36.589,36.589,0,0,0-1.988,4.068,1.611,1.611,0,0,0,1.118,1.968,1.639,1.639,0,0,0,1.968-1.118,33.675,33.675,0,0,1,1.9-3.724,7.722,7.722,0,0,0,1-2.666c.095-.662.061-1.357.211-2.006.727-3.138,1.515-6.252,2.172-9.409.417-2.01-2.667-2.869-3.086-.851Z"/><path class="c" d="M193.818,157.413c-5.846-1.039-27.058-4.238-33.3-5.094a1.5,1.5,0,0,0-1.681,1.194c-.8,3.929-2.406,13.888-2.986,17.958a1.507,1.507,0,0,0,1.259,1.7c6.011.94,27.894,4.217,33.879,4.955a1.506,1.506,0,0,0,1.675-1.254c.661-4.071,1.936-13.859,2.391-17.805A1.506,1.506,0,0,0,193.818,157.413Z"/><path class="e" d="M194.244,155.87c-7.6-1.346-15.257-2.439-22.893-3.579-3.393-.506-6.785-1.016-10.184-1.483a3.328,3.328,0,0,0-3.2.976,5.706,5.706,0,0,0-.98,2.876c-.4,2.161-.77,4.329-1.13,6.5q-.571,3.444-1.1,6.894c-.3,1.966-1.169,4.5.6,6.005,1.11.946,3.067.932,4.458,1.144q2.728.416,5.456.825c8,1.2,16,2.418,24.024,3.486a12.105,12.105,0,0,0,2.039.224,3.153,3.153,0,0,0,2.912-2.641c.46-2.31.693-4.689,1.008-7.022q.543-4.01,1.046-8.024c.3-2.391.969-5.291-2.05-6.178-1.98-.581-2.826,2.506-.851,3.086.242.071-.428,4.124-.49,4.614q-.4,3.167-.833,6.331c-.257,1.889-.519,3.779-.81,5.663-.03.2,0,.753-.14.887-.1.1-.307.058-.561.026-.51-.065-1.131-.147-1.527-.2-7.166-.969-14.319-2.048-21.47-3.119q-4.562-.684-9.12-1.383a5.583,5.583,0,0,1-.7-.108c-.454-.135-.185.157-.292-.188a8.206,8.206,0,0,1,.387-2.576q.467-3.021.964-6.037c.337-2.049.681-4.1,1.049-6.141.136-.758.275-1.516.423-2.272.011-.056.229-.759-.036-.569.108-.078.685.095.817.113,3.15.443,6.3.911,9.444,1.381,7.635,1.14,15.289,2.233,22.892,3.579C195.407,159.313,196.271,156.229,194.244,155.87Z"/><path class="e" d="M189.959,83.572c.158,5.306.641,10.592,1.031,15.883.384,5.226.579,10.458.627,15.7.025,2.682-.006,5.365-.157,8.043-.074,1.3-.184,2.592-.312,3.886-.007.068-.047.372-.008.078s-.033.215-.047.3c-.389,2.51-.817,5.013-1.219,7.521q-1.228,7.675-2.288,15.377a1.658,1.658,0,0,0,1.117,1.968,1.611,1.611,0,0,0,1.969-1.117c1.023-7.472,2.247-14.909,3.423-22.357a75.073,75.073,0,0,0,.727-11.263c.031-5.321-.124-10.656-.479-15.965-.4-6.018-1-12.023-1.184-18.055-.061-2.054-3.261-2.063-3.2,0Z"/><path class="c" d="M166.739,132.815c.038,2.709,1.351,22.341.772,27.408.145,3.329-3.829,7.489-3.777,10.2.152,1.7,0,4.072.849,5.584a4.537,4.537,0,0,0,3.229,1.9,15.463,15.463,0,0,1,3.758.858,8.689,8.689,0,0,0,2.332,1.08c.853.123,1.9-.568,1.67-1.4a5.126,5.126,0,0,0,1.616,1.124,1.751,1.751,0,0,0,1.845-.309,2.608,2.608,0,0,0,.407-2.036l-.554-6.893c.694.042,1.463,1.547,1.851,2.124a3.073,3.073,0,0,0,1.276,1.168,1.527,1.527,0,0,0,1.639-.222,3.13,3.13,0,0,0,.8-2.968c-1.158-2.9-3.044-4.146-4.632-5.718-1.127-1.115-2.411-1.5-3.222-2.868a1.646,1.646,0,0,1-.3-1.25c-.409-5.241-.125-16.909.641-28.887"/><path class="c" d="M163.734,170.42c.152,1.7,0,4.072.849,5.584a4.537,4.537,0,0,0,3.229,1.9,15.463,15.463,0,0,1,3.758.858,8.689,8.689,0,0,0,2.332,1.08c.853.123,1.9-.568,1.67-1.4a5.126,5.126,0,0,0,1.616,1.124,1.751,1.751,0,0,0,1.845-.309,2.608,2.608,0,0,0,.407-2.036l-.554-6.893"/><path class="e" d="M162.134,170.42c.147,1.8.015,3.71.642,5.431a5.7,5.7,0,0,0,4.387,3.547c.975.218,1.981.276,2.948.535,1.036.277,1.851,1,2.87,1.324a3.037,3.037,0,0,0,4.134-3.242l-2.674,1.557a5.151,5.151,0,0,0,3.622,1.714,3.07,3.07,0,0,0,2.9-2.447,14.487,14.487,0,0,0-.119-4.018l-.361-4.5a1.641,1.641,0,0,0-1.6-1.6,1.612,1.612,0,0,0-1.6,1.6l.494,6.144c.034.43.084.862.088,1.294,0,.109-.011.222-.006.33.014.382-.133-.03.029.034a3.965,3.965,0,0,1-1.187-.819,1.615,1.615,0,0,0-2.675,1.557l.053-.526.172-.166c.018.033-.2.078-.174.085.009,0-.258-.095-.336-.129-.733-.32-1.373-.788-2.129-1.074-1.375-.519-2.878-.48-4.272-.922a2.3,2.3,0,0,1-1.723-1.994,29.584,29.584,0,0,1-.286-3.72,1.642,1.642,0,0,0-1.6-1.6,1.612,1.612,0,0,0-1.6,1.6Z"/><path class="e" d="M165.334,170.42c0-.1.012-.2.009-.292-.01-.284-.063.259-.011.072s.083-.39.14-.582.121-.371.191-.553c.017-.043.153-.362.06-.152s.054-.116.073-.157c.416-.905.91-1.771,1.38-2.648.964-1.8,2-3.785,1.935-5.885a1.6,1.6,0,1,0-3.2,0c.007.221-.018.437-.021.656,0,.194.065-.3,0,0-.029.123-.05.248-.08.371a9.8,9.8,0,0,1-.412,1.259c-.164.424.137-.29-.054.128-.049.107-.1.214-.147.32-.111.237-.227.472-.345.705-.229.45-.469.893-.709,1.337-.9,1.658-2.009,3.473-2.005,5.42a1.6,1.6,0,1,0,3.2,0Z"/><path class="c" d="M176.285,160.63a1.693,1.693,0,0,0,.309,1.212c.811,1.363,2.095,1.753,3.222,2.868,1.588,1.572,3.474,2.823,4.632,5.718a3.13,3.13,0,0,1-.8,2.968,1.527,1.527,0,0,1-1.639.222,3.073,3.073,0,0,1-1.276-1.168,27.437,27.437,0,0,0-1.851-2.124"/><path class="e" d="M174.685,160.63c-.285,2.283,2.057,3.613,3.531,4.792.641.512,1.222,1.128,1.825,1.685a15.889,15.889,0,0,1,1.711,1.773,6.415,6.415,0,0,1,1.225,2.209c0-.008-.011.2.01.116-.037.155-.1.437-.132.529a3.78,3.78,0,0,1-.26.462c.121-.179-.168.22,0,0,.116-.153.32.151.009-.059.131.089-.164-.129-.176-.139a7.458,7.458,0,0,1-.767-.959c-.515-.644-1.092-1.233-1.644-1.844a1.6,1.6,0,1,0-2.263,2.263c.5.552,1.01,1.091,1.493,1.657.2.237-.043-.068.109.143s.311.435.481.641a4.338,4.338,0,0,0,1.111.967,3.283,3.283,0,0,0,3.075.184,3.966,3.966,0,0,0,1.841-2.271c.726-1.894-.086-3.73-1.189-5.293a22.915,22.915,0,0,0-3.243-3.442,20.93,20.93,0,0,0-2.227-1.835c-.449-.316-1.4-.913-1.32-1.578a1.609,1.609,0,0,0-1.6-1.6,1.64,1.64,0,0,0-1.6,1.6Z"/><path class="e" d="M165.236,135.783c.065,3.779.4,7.561.569,11.336a85.954,85.954,0,0,1,.106,13.1c-.221,2.044,2.98,2.029,3.2,0a85.954,85.954,0,0,0-.106-13.1c-.174-3.775-.5-7.557-.569-11.336-.035-2.057-3.236-2.064-3.2,0Z"/><path class="e" d="M175.338,134.962c-.53,8.318-1.2,16.752-.679,25.088.127,2.045,3.328,2.06,3.2,0-.518-8.336.149-16.77.679-25.088.131-2.056-3.069-2.048-3.2,0Z"/><path class="e" d="M163.91,135.694c4.264-.006,8.551-.235,12.8-.591,1.056-.089,2.647.019,3.256-.988a4.414,4.414,0,0,0,.437-1.759c.2-1.623.25-3.268.309-4.9.056-1.551.068-3.1.142-4.654.1-2.058-3.1-2.053-3.2,0-.084,1.777-.1,3.558-.168,5.335-.043,1.062-.092,2.124-.178,3.183-.018.215-.037.429-.06.644-.012.113-.026.226-.038.339.014-.131.06-.323.008-.08-.026.125-.061.26-.075.387-.042.36.14-.228.051-.1l1.382-.792a130.618,130.618,0,0,1-14.666.773,1.6,1.6,0,0,0,0,3.2Z"/><path class="e" d="M179.428,175.386a1.713,1.713,0,0,0,.6.6l.018.011a4.04,4.04,0,0,0,.391.164l.012,0a1.215,1.215,0,0,0,.638.028,1.2,1.2,0,0,0,.595-.19l.323-.25a1.2,1.2,0,0,0,.331-.515.785.785,0,0,0,.109-.4,1.205,1.205,0,0,0-.028-.638l-.161-.382a1.619,1.619,0,0,0-.574-.574l-.066-.045a1.188,1.188,0,0,0-.594-.19,1.643,1.643,0,0,0-1.595.764l-.161.382a1.617,1.617,0,0,0,0,.851l.161.382a1.619,1.619,0,0,0,.574.574l.065.045,1.233-2.924-.017-.006.382.162a.109.109,0,0,1-.023-.014l.324.25a.086.086,0,0,1-.019-.019l.25.324,0-.007a1.538,1.538,0,0,0-1.594-.764,1.182,1.182,0,0,0-.595.19l-.324.25a1.6,1.6,0,0,0-.412.706l-.057.425a1.594,1.594,0,0,0,.219.808Z"/><path class="c" d="M182.84,61.17a3.4,3.4,0,0,1,1.52.869,3.681,3.681,0,0,1,.731,3.847A3.611,3.611,0,0,1,178.146,64,3.675,3.675,0,0,1,179.5,61.7,3.851,3.851,0,0,1,182.84,61.17Z"/><path class="c" d="M222.294,61.485a3.463,3.463,0,0,0-1.7,1.148,3.559,3.559,0,0,0-.556,3.379,3.4,3.4,0,0,0,6.63-1.416,3.386,3.386,0,0,0-4.37-3.111Z"/><path class="e" d="M182.415,62.713c.125.037.249.095.374.126-.364-.09-.257-.12-.141-.058.088.047.177.089.263.14a1.377,1.377,0,0,1,.275.181c-.258-.263-.095-.072-.048-.02.072.08.152.159.227.237q.162.2-.063-.084c.039.055.076.111.112.169s.07.116.1.176l.048.091c.073.155.062.121-.035-.1a5.127,5.127,0,0,0,.159.491,1.538,1.538,0,0,0,.063.3l-.029-.219c.007.069.013.138.016.207s.006.139.006.208a1.785,1.785,0,0,0-.024.417l.028-.219c-.012.069-.026.137-.042.2s-.034.135-.054.2-.115.242-.1.3l.086-.21c-.027.057-.055.113-.085.169-.057.106-.24.291-.251.4l.136-.173c-.04.05-.081.1-.123.146q-.1.108-.2.207c-.069.068-.142.129-.213.194-.252.229.309-.195.018-.017-.138.083-.27.173-.413.248l-.086.044c-.155.072-.116.057.117-.043a.968.968,0,0,0-.181.067c-.092.032-.185.06-.278.084-.073.019-.452.049-.168.048s-.029,0-.078,0c-.1.007-.2.009-.295.007-.082,0-.164-.011-.246-.015-.223-.01.41.095.079.007-.183-.049-.36-.1-.54-.157-.208-.069.354.19.068.023-.111-.065-.224-.122-.332-.192-.035-.024-.3-.192-.066-.042s-.011-.018-.052-.055c-.067-.063-.133-.129-.2-.2-.037-.04-.2-.277-.053-.049s-.012-.022-.037-.059c-.051-.076-.1-.153-.145-.232s-.069-.135-.107-.2c-.187-.333.095.3,0,.009-.048-.142-.1-.283-.134-.428-.022-.087-.037-.174-.057-.261-.074-.323.027.4.008.076-.008-.146-.019-.289-.015-.435,0-.085.009-.17.014-.256.017-.3-.1.394,0,.04.028-.1.048-.2.079-.306.038-.121.188-.375-.022.01.074-.134.132-.275.212-.407.043-.072.093-.14.137-.212.131-.208-.1.125-.11.136.106-.111.2-.235.306-.343.065-.065.134-.124.2-.186.018-.016.039-.03.057-.046-.392.353-.322.233-.09.082.1-.064.2-.114.3-.174.306-.184-.312.091.017-.012.1-.031.2-.065.3-.092.068-.017.465-.058.173-.048s.017,0,.067,0c.117-.008.235-.011.352-.01.157,0,.31.021.466.032-.588-.041-.162-.02,0,.016.084.018.168.04.251.064a1.6,1.6,0,0,0,.851-3.085,5.374,5.374,0,0,0-5.056,1.064,5.253,5.253,0,0,0-1.472,5.379,5.154,5.154,0,0,0,5,3.763,5.295,5.295,0,0,0,4.545-7.869,4.964,4.964,0,0,0-3.013-2.337,1.6,1.6,0,0,0-.851,3.085Z"/><path class="e" d="M221.869,59.942a5.143,5.143,0,0,0-3.64,4.942,5.294,5.294,0,0,0,3.836,4.913,4.758,4.758,0,0,0,5.563-2.382,5.516,5.516,0,0,0-.015-5.137,5.04,5.04,0,0,0-5.744-2.336,1.6,1.6,0,1,0,.85,3.086c.127-.036.256-.052.383-.082-.582.137-.216.027-.037.017a4.861,4.861,0,0,1,.566.012c.261.016-.138-.009-.156-.021a1.242,1.242,0,0,0,.28.06c.1.026.192.059.288.089.293.092-.1-.034-.09-.04.024-.016.265.142.292.158l.1.062q.216.153-.045-.045a3.693,3.693,0,0,0,.439.438l-.131-.171c.037.051.073.1.107.155s.064.1.094.155c.044.076.081.155.122.232.148.279-.13-.372-.035-.082a5.848,5.848,0,0,1,.188.707c.049.246-.049-.468-.031-.237,0,.036.008.071.011.107.008.1.011.2.011.3,0,.141-.027.283-.026.423,0-.45.034-.239,0-.084-.021.1-.045.2-.073.3-.02.071-.042.141-.066.211-.057.166-.187.257.031-.052-.082.116-.132.272-.206.4-.046.077-.1.15-.146.225-.17.265.2-.229.058-.076a4.636,4.636,0,0,0-.418.41c.164-.234.225-.166.064-.062-.065.043-.131.082-.2.119l-.083.044c-.152.072-.112.057.122-.045a1,1,0,0,0-.223.076c-.074.022-.149.042-.225.059l-.09.018c-.172.029-.121.022.153-.019a3.678,3.678,0,0,0-.545,0c-.335-.009.394.08.066.01-.059-.013-.119-.024-.178-.038-.176-.043-.344-.128-.519-.168.342.079.247.113.133.049-.08-.044-.162-.083-.241-.13s-.156-.094-.232-.146c-.038-.025-.075-.052-.112-.079q-.146-.108.144.11c-.081-.134-.286-.256-.4-.376a.935.935,0,0,0-.119-.136l.138.182q-.054-.072-.105-.147c-.084-.125-.151-.257-.226-.387-.163-.28.114.365.019.055-.041-.134-.088-.264-.119-.4-.015-.064-.019-.145-.04-.2q.047.378.021.113c0-.07-.008-.14-.009-.209,0-.088,0-.175.008-.263.026-.414-.078.273,0-.043a4.782,4.782,0,0,0,.174-.606l-.08.188q.043-.1.093-.189a3.5,3.5,0,0,1,.19-.317l.029-.044c.1-.135.082-.114-.05.064.007-.088.249-.253.309-.317.238-.25-.224.146-.049.028.089-.06.176-.122.269-.177.07-.042.142-.081.215-.118.14-.07.325-.089-.128.046.1-.031.2-.077.307-.108a1.6,1.6,0,1,0-.85-3.086Z"/><path class="e" d="M192.38,85.248q.249-.122.5-.237c.393-.181-.332.138-.021.01a5.563,5.563,0,0,0,1.426-.812,3.843,3.843,0,0,0,1.248-1.946,15.191,15.191,0,0,0,.306-1.71,31.974,31.974,0,0,0,.4-3.177,1.609,1.609,0,0,0-1.6-1.6,1.638,1.638,0,0,0-1.6,1.6c-.033.452-.077.9-.129,1.353-.036.313.032-.209,0,0-.015.1-.029.2-.044.3q-.047.307-.1.613c-.093.545-.144,1.1-.281,1.64-.028.11-.067.216-.1.325-.053.177.184-.381.07-.164-.032.061-.061.121-.095.18s-.064.1-.094.145c-.091.154.273-.305.1-.129-.053.053-.1.108-.156.159s-.233.207-.022.025.013-.019-.046.018c-.078.047-.158.092-.24.133-.057.029-.123.051-.177.084q.312-.127.139-.062c-.146.054-.291.115-.433.18-.222.1-.441.2-.66.31a1.61,1.61,0,0,0-.574,2.19,1.642,1.642,0,0,0,2.189.574Z"/><path class="e" d="M210.373,77.376a29.89,29.89,0,0,0,.338,3.2c.1.658.175,1.338.33,1.986a4,4,0,0,0,1.1,1.98,4.233,4.233,0,0,0,1.084.747c.174.081.352.154.529.226.353.144-.264-.123-.122-.056.166.077.335.15.5.228a1.638,1.638,0,0,0,2.189-.574,1.621,1.621,0,0,0-.574-2.19c-.342-.159-.7-.291-1.04-.451.4.189-.07-.045-.176-.108a1.642,1.642,0,0,0-.227-.149c.048.015.272.241.128.092-.054-.056-.112-.114-.167-.168-.15-.145.093.112.108.147a3.114,3.114,0,0,0-.186-.311c-.138-.239.129.382.049.118-.014-.046-.031-.09-.046-.136-.039-.128-.071-.259-.1-.39-.122-.585-.195-1.186-.288-1.776-.017-.109-.033-.219-.049-.328-.048-.314.018.166-.006-.036-.027-.22-.054-.439-.077-.66q-.071-.694-.1-1.392a1.6,1.6,0,1,0-3.2,0Z"/><path class="e" d="M199.714,69.7a8.415,8.415,0,0,0,4.05.95,6.73,6.73,0,0,0,4.212-1.3,1.6,1.6,0,0,0,.468-1.131,1.631,1.631,0,0,0-.468-1.132,1.609,1.609,0,0,0-1.132-.468,1.88,1.88,0,0,0-1.131.468c.561-.436.06-.061-.113.03-.136.071-.465.176.066-.015-.106.039-.211.081-.318.116-.294.094-.593.132-.891.2.134-.032.347-.041.083-.015-.088.009-.175.016-.263.022-.21.013-.422.019-.633.018-.189,0-.378-.008-.567-.021-.086-.006-.173-.013-.259-.021-.164-.017-.349-.115.042.009-.267-.085-.561-.1-.832-.185-.117-.035-.231-.077-.346-.116-.33-.114.371.173.07.032-.143-.068-.283-.138-.423-.212a1.6,1.6,0,0,0-1.615,2.764Z"/><path class="e" d="M202.663,60.535a17.418,17.418,0,0,1,.412,1.886L203.018,62a1.13,1.13,0,0,1,.007.26l.057-.426a.644.644,0,0,1-.028.117l.161-.382a.5.5,0,0,1-.041.076l.25-.324a.392.392,0,0,1-.062.06l.324-.25a1.062,1.062,0,0,1-.149.079l.382-.161a1.1,1.1,0,0,1-.252.073l.426-.057a.989.989,0,0,1-.237,0l.426.057c-.089-.012-.177-.034-.266-.046a1.215,1.215,0,0,0-.638-.029,1.2,1.2,0,0,0-.595.19,1.6,1.6,0,0,0-.574,2.189l.25.324a1.6,1.6,0,0,0,.706.412c.259.035.511.1.775.11a2.573,2.573,0,0,0,1.212-.3,1.884,1.884,0,0,0,1.005-1.227,2.8,2.8,0,0,0-.009-1.252c-.1-.608-.243-1.21-.4-1.8a1.6,1.6,0,0,0-1.968-1.118,1.616,1.616,0,0,0-.956.735,1.681,1.681,0,0,0-.162,1.233Z"/><path class="e" d="M193.3,55.027c-.314,1.023-.109,3.377,1.829,3.577,2.563-.015,2.7-2.861,1.837-4.2A2.03,2.03,0,0,0,193.3,55.027Z"/><path class="e" d="M213.822,55.027c.315,1.023.11,3.377-1.829,3.577-2.562-.015-2.7-2.861-1.836-4.2A2.029,2.029,0,0,1,213.822,55.027Z"/></svg>